<?xml version="1.0" standalone="no"?>
<!DOCTYPE svg PUBLIC "-//W3C//DTD SVG 1.1//EN" "http://www.w3.org/Graphics/SVG/1.1/DTD/svg11.dtd" >
<svg xmlns="http://www.w3.org/2000/svg" xmlns:xlink="http://www.w3.org/1999/xlink" version="1.1">
<metadata>
Created by FontForge 20141024 at Tue Jan 13 11:59:05 2015
 By System Administrator
(c) Copyright 1998, Neufville Digital. ALL RIGHTS RESERVED. This font is licensed, not sold, and may not be reproduced without the written consent of Neufville Digital. Parts (c) Visualogik Technology &#38; Design, 1998.
</metadata>
<defs>
<font id="Futura-CondensedExtraBold" horiz-adv-x="1232" >
  <font-face 
    font-family="Futura"
    font-weight="800"
    font-stretch="condensed"
    units-per-em="2048"
    panose-1="2 11 8 6 2 2 4 3 2 4"
    ascent="1638"
    descent="-410"
    x-height="1081"
    cap-height="1544"
    bbox="-1359 -662 2276 2154"
    underline-thickness="240"
    underline-position="-120"
    unicode-range="U+0008-FB02"
  />
<missing-glyph horiz-adv-x="1024" 
d="M200 0v1544h624v-1544h-624zM781 43v1458h-538v-1458h538z" />
    <glyph glyph-name="fi" unicode="fi" horiz-adv-x="1268" 
d="M1175 0h-402v1081h402v-1081zM1175 1184h-402v82q0 24 -9 45.5t-24.5 37.5t-37 25t-45.5 9q-48 0 -83 -35q-34 -34 -34 -82v-185h144v-323h-144v-758h-401v758h-116v323h116v185q0 197 164 329q152 122 354 122t354 -122q164 -132 164 -329v-82z" />
    <glyph glyph-name="fl" unicode="fl" horiz-adv-x="1268" 
d="M1175 0h-402v1266q0 24 -9 45.5t-24.5 37.5t-37 25t-45.5 9q-48 0 -83 -35q-34 -34 -34 -82v-185h144v-323h-144v-758h-401v758h-116v323h116v185q0 197 164 329q152 122 354 122t354 -122q164 -132 164 -329v-1266z" />
    <glyph glyph-name=".notdef" horiz-adv-x="1024" 
d="M200 0v1544h624v-1544h-624zM781 43v1458h-538v-1458h538z" />
    <glyph glyph-name=".null" horiz-adv-x="0" 
 />
    <glyph glyph-name="nonmarkingreturn" horiz-adv-x="682" 
 />
    <glyph glyph-name="controlNULL" horiz-adv-x="0" 
 />
    <glyph glyph-name="controlNULL" horiz-adv-x="0" 
 />
    <glyph glyph-name="controlBS" horiz-adv-x="0" 
 />
    <glyph glyph-name="controlHT" unicode="&#x9;" horiz-adv-x="616" 
 />
    <glyph glyph-name="controlGS" horiz-adv-x="0" 
 />
    <glyph glyph-name="space" unicode=" " horiz-adv-x="616" 
 />
    <glyph glyph-name="exclam" unicode="!" horiz-adv-x="746" 
d="M607 209q0 -96 -70 -163q-71 -68 -165 -68t-165 68q-68 71 -68 166q0 97 68 165q69 69 165 69q99 0 167 -69q68 -68 68 -168zM582 553h-407v1079h407v-1079z" />
    <glyph glyph-name="quotedbl" unicode="&#x22;" horiz-adv-x="939" 
d="M386 908h-258l-55 636h368zM811 908h-258l-55 636h369z" />
    <glyph glyph-name="numbersign" unicode="#" 
d="M1053 692v-227h-174l-57 -465h-238l57 465h-124l-57 -465h-236l57 465h-150v227h178l23 189h-148v228h177l53 435h236l-54 -435h124l55 435h237l-54 -435h144v-228h-172l-23 -189h146zM692 881h-124l-23 -189h125z" />
    <glyph glyph-name="dollar" unicode="$" 
d="M722 17v-234h-190v197q-114 5 -172 18q-29 6 -66 18.5t-82 31.5v482q114 -173 268 -173q121 0 121 99q0 64 -82 130l-77 62q-122 97 -177 194q-53 98 -53 219q0 352 334 491v216h188v-204q124 -16 247 -77v-468q-129 165 -252 165q-46 0 -75.5 -25.5t-29.5 -65.5
q0 -51 99 -127l81 -63q57 -44 98 -89.5t67 -95t38.5 -104.5t12.5 -118q0 -335 -298 -479z" />
    <glyph glyph-name="percent" unicode="%" horiz-adv-x="1597" 
d="M732 1192q0 -168 -91 -274t-236 -106q-157 0 -250 104q-93 103 -93 281q0 168 92 269q93 101 247 101q149 0 240 -103t91 -272zM461 1185q0 155 -63 155q-64 0 -64 -151t65 -151q62 0 62 147zM1535 357q0 -168 -91 -274q-92 -105 -236 -105q-157 0 -250 103t-93 281
q0 168 92 269q93 101 247 101q149 0 240 -103t91 -272zM1264 349q0 156 -63 156q-64 0 -64 -152q0 -151 65 -151q62 0 62 147zM330 -53l-161 115l1093 1545l166 -116z" />
    <glyph glyph-name="ampersand" unicode="&#x26;" horiz-adv-x="1459" 
d="M1436 0h-451l-60 84q-167 -111 -343 -111q-204 0 -346 139q-143 140 -143 338q0 257 266 409q-119 152 -119 303q0 170 125 290q124 120 304 120q194 0 331 -122q138 -122 138 -295q0 -231 -263 -402l152 -199q27 29 63 73t81 105l212 -284q-43 -48 -82.5 -87t-76.5 -73z
M561 573q-73 -43 -73 -115q0 -53 35 -91q34 -37 85 -37q54 0 105 42zM690 1019q96 93 96 154q0 35 -24 58.5t-59 23.5q-18 0 -33.5 -6.5t-27.5 -17.5t-19 -26t-7 -31q0 -45 74 -155z" />
    <glyph glyph-name="quotesingle" unicode="'" horiz-adv-x="514" 
d="M386 908h-258l-55 636h368z" />
    <glyph glyph-name="parenleft" unicode="(" horiz-adv-x="775" 
d="M698 1535q-55 -109 -98 -222.5t-74 -239.5q-60 -243 -60 -470t60 -470q31 -126 74 -239t98 -222l-300 -161q-290 521 -290 1092q0 569 290 1093z" />
    <glyph glyph-name="parenright" unicode=")" horiz-adv-x="775" 
d="M77 -328q111 219 171 461q60 243 60 470q0 235 -61 470q-30 121 -72.5 235.5t-97.5 226.5l300 161q290 -521 290 -1093q0 -571 -290 -1092z" />
    <glyph glyph-name="asterisk" unicode="*" 
d="M485 1689h262l-15 -254l237 93l81 -249l-247 -64l163 -197l-213 -155l-137 216l-137 -216l-212 155l162 197l-247 63l81 250l238 -93z" />
    <glyph glyph-name="plus" unicode="+" 
d="M106 667v241h386v412h247v-412h386v-241h-386v-412h-247v412h-386z" />
    <glyph glyph-name="comma" unicode="," horiz-adv-x="616" 
d="M587 369l-270 -742h-329l189 742h410z" />
    <glyph glyph-name="hyphen" unicode="-" horiz-adv-x="502" 
d="M502 401h-502v309h502v-309z" />
    <glyph glyph-name="period" unicode="." horiz-adv-x="616" 
d="M542 206q0 -94 -69 -161q-67 -67 -164 -67q-96 0 -167 68q-69 69 -69 167q0 96 68 164t164 68q99 0 168 -70q69 -69 69 -169z" />
    <glyph glyph-name="slash" unicode="/" horiz-adv-x="1368" 
d="M225 -489l-217 123l1104 2062l218 -116z" />
    <glyph glyph-name="zero" unicode="0" 
d="M1162 762q0 -362 -144 -576q-144 -213 -387 -213q-263 0 -412 215q-148 214 -148 598q0 363 148 574q149 212 402 212q255 0 398 -215t143 -595zM750 765q0 447 -135 447q-134 0 -134 -400q0 -478 131 -478q71 0 104.5 104.5t33.5 326.5z" />
    <glyph glyph-name="one" unicode="1" 
d="M893 0h-417v1181h-167v363h584v-1544z" />
    <glyph glyph-name="two" unicode="2" 
d="M1129 0h-1063l422 563q72 96 121 171.5t77 133.5q55 109 55 224q0 63 -26 100t-71 37q-100 0 -100 -188q0 -10 0.5 -24t1.5 -33h-405l-2 56q0 233 144 382q145 150 371 150q218 0 356 -142q139 -139 139 -363q0 -180 -95 -350q-48 -85 -124.5 -178.5t-185.5 -196.5
q94 7 189.5 10t195.5 3v-355z" />
    <glyph glyph-name="three" unicode="3" 
d="M91 454h407q0 -139 102 -139q51 0 83 39.5t32 103.5q0 163 -170 163q-12 0 -30 -1.5t-41 -3.5v329q17 -1 29.5 -1.5t20.5 -0.5q171 0 171 157q0 128 -89 128q-70 0 -80 -103l-2 -21h-403q17 216 151 341q133 127 349 127q206 0 342 -130q139 -129 139 -319
q0 -213 -187 -325q207 -119 207 -358q0 -207 -147 -337q-145 -130 -377 -130q-227 0 -366 127q-141 127 -141 331v23z" />
    <glyph glyph-name="four" unicode="4" 
d="M1039 0h-416v313h-561v326l466 905h511v-899h132v-332h-132v-313zM642 645v289q0 20 2.5 64t7.5 113l-62 -132q-46 -97 -92 -180.5t-92 -153.5h236z" />
    <glyph glyph-name="five" unicode="5" 
d="M110 93l49 366q185 -107 331 -107q95 0 154 48q60 48 60 125q0 82 -65 127.5t-183 45.5q-129 0 -271 -54l120 900h768v-363h-440l-33 -173q43 3 70 3q190 0 321 -138q130 -136 130 -340q0 -240 -168 -400q-166 -160 -419 -160q-216 0 -424 120z" />
    <glyph glyph-name="six" unicode="6" 
d="M936 1544l-247 -439q-14 -25 -33 -55.5t-43 -66.5q83 44 147 44q159 0 269 -144q111 -143 111 -350q0 -247 -149 -405q-149 -155 -388 -155q-227 0 -366 153q-139 154 -139 405q0 269 249 743l141 270h448zM739 522q0 204 -119 204q-114 0 -114 -206q0 -214 114 -214
q119 0 119 216z" />
    <glyph glyph-name="seven" unicode="7" 
d="M539 0h-449l372 822q42 91 90.5 179.5t108.5 179.5h-523v363h1095z" />
    <glyph glyph-name="eight" unicode="8" 
d="M904 804q239 -104 239 -364q0 -202 -150 -335q-150 -132 -377 -132q-220 0 -373 135q-153 136 -153 331q0 260 263 365q-232 79 -232 323q0 193 138 319q139 126 351 126q218 0 360 -124q145 -124 145 -309q0 -120 -50 -200t-161 -135zM718 485q0 156 -102 156
q-22 0 -40.5 -12t-32 -33t-21 -50.5t-7.5 -64.5q0 -69 28.5 -110.5t74.5 -41.5q22 0 40.5 11.5t31.5 32t20.5 49t7.5 63.5zM705 1105q0 61 -24 98t-64 37q-39 0 -62 -35t-23 -93q0 -141 87 -141q86 0 86 134z" />
    <glyph glyph-name="nine" unicode="9" 
d="M295 0l247 439q14 25 33.5 55.5t43.5 66.5q-83 -44 -147 -44q-159 0 -270 143q-110 146 -110 351q0 247 149 405q148 156 388 156q227 0 366 -154t139 -405q0 -268 -250 -743l-141 -270h-448zM493 1023q0 -205 120 -205q114 0 114 207q0 215 -115 215q-119 0 -119 -217z
" />
    <glyph glyph-name="colon" unicode=":" horiz-adv-x="616" 
d="M542 866q0 -94 -69 -161q-67 -67 -164 -67q-98 0 -167 69t-69 166q0 95 68 163t164 68q99 0 168 -69t69 -169zM542 206q0 -94 -69 -161q-67 -67 -164 -67q-96 0 -167 68q-69 69 -69 167q0 96 68 164t164 68q99 0 168 -70q69 -69 69 -169z" />
    <glyph glyph-name="semicolon" unicode=";" horiz-adv-x="616" 
d="M587 369l-270 -742h-329l189 742h410zM630 865q0 -95 -69 -162q-67 -67 -165 -67q-97 0 -166 69q-69 70 -69 167q0 96 68 164t164 68q99 0 168 -70q69 -69 69 -169z" />
    <glyph glyph-name="less" unicode="&#x3c;" 
d="M1118 1522v-436l-541 -303l538 -305v-433l-1001 557v365z" />
    <glyph glyph-name="equal" unicode="=" 
d="M91 852v218h1050v-218h-1050zM91 505v218h1050v-218h-1050z" />
    <glyph glyph-name="greater" unicode="&#x3e;" 
d="M114 45v436l540 304l-538 305v432l1002 -556v-365z" />
    <glyph glyph-name="question" unicode="?" horiz-adv-x="1178" 
d="M827 209q0 -96 -69 -163q-71 -68 -164 -68q-94 0 -165 68q-68 71 -68 166q0 96 68 167q67 69 164 69q99 0 166 -70q68 -71 68 -169zM789 559h-397v378q42 -3 62 -3q114 0 166 48.5t52 154.5q0 171 -90 171q-87 0 -87 -176h-402q0 217 91 338q61 84 170 133q101 49 229 49
q220 0 361 -143t141 -365q0 -170 -74.5 -278.5t-221.5 -147.5v-159z" />
    <glyph glyph-name="at" unicode="@" horiz-adv-x="1606" 
d="M1166 1176l-61 -508q-2 -23 -3.5 -46t-1.5 -47q0 -60 35 -60q64 0 117 111q54 112 54 244q0 221 -133 363q-132 143 -336 143q-220 0 -370 -174q-149 -176 -149 -429q0 -260 150 -431t378 -171q239 0 441 121l89 -171q-7 -4 -11.5 -6t-6.5 -4l-19 -10
q-233 -125 -473 -125q-280 0 -473 153q-138 110 -215 280q-78 171 -78 364q0 336 212 566q213 230 526 230q282 0 476 -198q193 -196 193 -487q0 -228 -114 -391q-113 -164 -269 -164q-89 0 -153 97q-107 -101 -203 -101q-124 0 -208 118q-83 119 -83 295q0 195 100 325
q101 131 248 131q81 0 154 -64l11 46h176zM945 800q0 83 -31 135q-32 54 -78 54q-59 0 -99 -76t-40 -188q0 -86 24 -141q25 -55 63 -55q61 0 111 83t50 188z" />
    <glyph glyph-name="A" unicode="A" horiz-adv-x="1233" 
d="M1220 0h-431l-31 196h-281l-34 -196h-431l371 1544h510zM709 527l-27 180q-1 1 -4 27q-2 22 -21 174q-2 17 -5 46.5t-8 74.5l-13 146q-2 -21 -5.5 -47t-7.5 -57q-7 -62 -10 -86t-4 -29l-29 -187l-42 -242h176z" />
    <glyph glyph-name="B" unicode="B" horiz-adv-x="1228" 
d="M108 0v1544h485q272 0 403 -120q133 -123 133 -318q0 -290 -288 -314q164 -24 240.5 -108t76.5 -242q0 -199 -129 -320q-128 -122 -337 -122h-584zM525 335q12 -1 21 -1.5t15 -0.5q78 0 124.5 41t46.5 110t-46.5 108t-127.5 39h-33v-296zM525 944h28q75 0 118.5 35
t43.5 98q0 134 -147 134q-7 0 -17.5 -0.5t-25.5 -1.5v-265z" />
    <glyph glyph-name="C" unicode="C" horiz-adv-x="1031" 
d="M976 475l-24 -446q-139 -56 -249 -56q-259 0 -436 190q-198 213 -198 603q0 365 186 586q186 220 497 220q101 0 206 -38v-441q-93 93 -191 93q-128 0 -200 -109q-72 -110 -72 -304q0 -94 18 -168t51.5 -125t82.5 -78t112 -27q108 0 217 100z" />
    <glyph glyph-name="D" unicode="D" horiz-adv-x="1245" 
d="M108 0v1544h360q309 0 481 -166q226 -217 226 -607q0 -384 -191 -593q-163 -178 -486 -178h-390zM525 373q224 11 224 386q0 185 -57 292q-57 108 -154 108h-13v-786z" />
    <glyph glyph-name="E" unicode="E" horiz-adv-x="953" 
d="M108 0v1544h775v-363h-358v-225h321v-349h-321v-236h358v-371h-775z" />
    <glyph glyph-name="F" unicode="F" horiz-adv-x="899" 
d="M525 0h-417v1544h737v-363h-320v-225h298v-349h-298v-607z" />
    <glyph glyph-name="G" unicode="G" horiz-adv-x="1297" 
d="M645 893h582v-64q0 -446 -133 -642q-145 -214 -429 -214q-279 0 -438 210q-158 212 -158 582q0 375 159 591t435 216q366 0 531 -382l-404 -148q-9 73 -41.5 115.5t-81.5 42.5q-172 0 -172 -473q0 -201 38 -292t121 -91q33 0 60 16t45.5 45t29 70.5t10.5 92.5h-154v325z
" />
    <glyph glyph-name="H" unicode="H" horiz-adv-x="1249" 
d="M1141 0h-417v621h-199v-621h-417v1544h417v-546h199v546h417v-1544z" />
    <glyph glyph-name="I" unicode="I" horiz-adv-x="633" 
d="M525 0h-417v1544h417v-1544z" />
    <glyph glyph-name="J" unicode="J" horiz-adv-x="820" 
d="M0 23v432q71 -92 167 -92q128 0 128 192v989h417v-1072q0 -137 -24 -219q-22 -81 -81 -149q-114 -131 -335 -131q-117 0 -272 50z" />
    <glyph glyph-name="K" unicode="K" horiz-adv-x="1253" 
d="M1241 0h-450l-277 712l11 -712h-417v1544h417l-11 -662l246 662h440l-333 -745z" />
    <glyph glyph-name="L" unicode="L" horiz-adv-x="854" 
d="M838 0h-730v1544h417v-1173h313v-371z" />
    <glyph glyph-name="M" unicode="M" horiz-adv-x="1774" 
d="M1697 0h-436l-31 704l-13 281q-7 -81 -16 -154.5t-22 -142.5l-131 -688h-340l-112 689q-10 60 -27 206q-2 22 -9 90l-10 -285l-37 -700h-444l180 1544h519l87 -520q11 -64 19.5 -139t15.5 -163q13 147 36 263l106 559h515z" />
    <glyph glyph-name="N" unicode="N" horiz-adv-x="1303" 
d="M108 0v1544h398l209 -542q17 -48 38.5 -110t47.5 -143l43 -136q-23 201 -35 344t-12 240v347h398v-1544h-398l-210 568q-33 91 -59.5 170.5t-46.5 151.5q13 -163 19 -284t6 -212v-394h-398z" />
    <glyph glyph-name="O" unicode="O" horiz-adv-x="1313" 
d="M1243 767q0 -353 -161 -574q-160 -220 -417 -220q-228 0 -391 169q-205 214 -205 642q0 410 214 627q159 161 377 161q267 0 425 -218t158 -587zM810 764q0 419 -148 419q-74 0 -118 -110q-43 -102 -43 -300q0 -195 40.5 -302.5t112.5 -107.5q74 0 114 106q42 106 42 295
z" />
    <glyph glyph-name="P" unicode="P" horiz-adv-x="1170" 
d="M525 0h-417v1544h404q302 0 448 -123q172 -145 172 -403q0 -281 -183 -419q-125 -93 -359 -93h-65v-506zM525 853l19 -1q76 0 121 46.5t45 127.5q0 80 -44 130q-44 51 -112 51h-29v-354z" />
    <glyph glyph-name="Q" unicode="Q" horiz-adv-x="1330" 
d="M1260 -30l-335 -184l-143 207q-72 -20 -124 -20q-248 0 -413 202q-176 215 -176 594q0 367 160 584q160 219 428 219q261 0 424 -217t163 -565q0 -397 -175 -608zM812 764q0 99 -11 177t-31 131.5t-49.5 82t-66.5 28.5q-70 0 -112 -112q-41 -120 -41 -301
q0 -96 10.5 -172t30 -128t48.5 -79.5t65 -27.5q37 0 66 27t49.5 79t31 126t10.5 169z" />
    <glyph glyph-name="R" unicode="R" horiz-adv-x="1236" 
d="M1206 0h-451l-206 550q-3 14 -10.5 37t-18.5 55l3 -102v-540h-415v1544h427q282 0 422 -111q178 -142 178 -404q0 -280 -239 -387zM525 829h28q72 0 120 55t48 140q0 173 -181 173h-15v-368z" />
    <glyph glyph-name="S" unicode="S" horiz-adv-x="936" 
d="M75 38v485q123 -168 266 -168q54 0 88 28.5t34 71.5q0 62 -74 121l-68 53q-68 51 -116 101.5t-78 104t-44 110.5t-14 120q0 108 50 226q25 55 58 100.5t76 80.5q118 100 285 100q149 0 300 -79v-472q-51 79 -116 124.5t-128 45.5q-48 0 -79 -28q-32 -27 -32 -65
q0 -62 85 -123l66 -49q132 -95 189 -195q58 -100 58 -234q0 -228 -139 -376t-352 -148q-147 0 -315 65z" />
    <glyph glyph-name="T" unicode="T" horiz-adv-x="886" 
d="M647 0h-417v1174h-230v370h886v-370h-239v-1174z" />
    <glyph glyph-name="U" unicode="U" horiz-adv-x="1263" 
d="M738 1544h417v-1092q0 -137 -43 -222q-42 -89 -140 -161q-132 -96 -321 -96q-214 0 -359 106q-184 135 -184 432v1033h417v-996q0 -101 24.5 -143t82.5 -42q60 0 83 39q23 41 23 145v997z" />
    <glyph glyph-name="V" unicode="V" horiz-adv-x="1200" 
d="M779 0h-425l-354 1544h438l76 -441q43 -253 69 -566q11 139 27 260t38 236l99 511h453z" />
    <glyph glyph-name="W" unicode="W" horiz-adv-x="1745" 
d="M1432 0h-402l-96 541q-28 157 -42 272q-7 57 -12 95t-7 58q-5 -41 -15 -153q-5 -57 -12 -120t-17 -133l-79 -560h-406l-344 1544h412l68 -425q39 -254 54 -399l14 -141l13 121q21 212 54 403l78 441h359l70 -371q50 -259 87 -613q11 159 24 282t29 223l76 479h407z" />
    <glyph glyph-name="X" unicode="X" horiz-adv-x="1197" 
d="M1197 0h-463l-77 220q-37 101 -60 194q-22 -92 -66 -211l-77 -203h-454l375 801l-354 743h464l69 -209q11 -29 21.5 -68t21.5 -88q25 100 42 154l64 211h467l-352 -743z" />
    <glyph glyph-name="Y" unicode="Y" horiz-adv-x="1159" 
d="M800 0h-417v654l-383 890h435l75 -229q22 -67 39.5 -129t31.5 -119q23 85 40 146.5t30 99.5l76 231h432l-359 -890v-654z" />
    <glyph glyph-name="Z" unicode="Z" horiz-adv-x="1192" 
d="M1102 0h-1063v33l362 827q40 75 64.5 123t35.5 68q19 39 78 130h-448v363h1023v-43l-380 -841q-37 -81 -74 -157t-74 -151q66 5 103.5 7.5t49.5 2.5l323 9v-371z" />
    <glyph glyph-name="bracketleft" unicode="[" horiz-adv-x="808" 
d="M730 -206v-276h-591v2171h591v-276h-237v-1619h237z" />
    <glyph glyph-name="backslash" unicode="\" horiz-adv-x="1368" 
d="M1143 -489l-1104 2069l218 116l1104 -2062z" />
    <glyph glyph-name="bracketright" unicode="]" horiz-adv-x="808" 
d="M77 1413v276h591v-2171h-591v276h238v1619h-238z" />
    <glyph glyph-name="asciicircum" unicode="^" horiz-adv-x="1158" 
d="M397 781h-383l323 775h484l323 -775h-382l-182 479z" />
    <glyph glyph-name="underscore" unicode="_" horiz-adv-x="1158" 
d="M0 -111h1158v-256h-1158v256z" />
    <glyph glyph-name="grave" unicode="`" horiz-adv-x="1158" 
d="M703 1228h-230l-203 342h324z" />
    <glyph glyph-name="a" unicode="a" horiz-adv-x="1150" 
d="M1058 0h-402q5 54 8 103t6 79q-104 -204 -279 -204q-152 0 -241 152q-88 151 -88 418q0 258 91 406q91 150 248 150q161 0 260 -194q-2 20 -3 35t-2 25l-4 63l-3 48h409v-1081zM652 554q0 60 -4.5 102t-14.5 68.5t-26 38t-39 11.5q-102 0 -102 -271q0 -194 91 -194
q95 0 95 245z" />
    <glyph glyph-name="b" unicode="b" horiz-adv-x="1150" 
d="M503 0h-410v1689h401v-592q0 -75 -6 -172q55 98 111 139q58 40 146 40q164 0 254 -151q90 -150 90 -423q0 -261 -93 -406q-92 -146 -255 -146q-79 0 -134 36q-27 19 -55.5 51t-57.5 80q1 -19 2 -32.5t2 -22.5zM674 539q0 232 -102 232q-90 0 -90 -219q0 -229 93 -229
q99 0 99 216z" />
    <glyph glyph-name="c" unicode="c" horiz-adv-x="701" 
d="M655 353v-369q-36 -4 -63 -5.5t-45 -1.5q-180 0 -301 108q-82 73 -133 200t-51 261q0 238 146 399q145 159 366 159q13 0 33 -1t48 -3v-352q-178 -12 -178 -194q0 -82 44 -144q45 -59 107 -59q6 0 12.5 0.5t14.5 1.5z" />
    <glyph glyph-name="d" unicode="d" horiz-adv-x="1150" 
d="M648 0q1 17 2 39t3 51q2 18 3 55q-58 -94 -113 -131q-54 -36 -133 -36q-163 0 -256 146q-92 146 -92 406q0 273 90 423q90 151 254 151q90 0 145 -40q58 -40 112 -139q-3 52 -3 63l-4 109v592h402v-1689h-410zM477 545q0 -222 99 -222q93 0 93 229q0 219 -90 219
q-102 0 -102 -226z" />
    <glyph glyph-name="e" unicode="e" horiz-adv-x="1115" 
d="M646 366l392 -8q-42 -189 -163.5 -284.5t-317.5 -95.5q-232 0 -364 144q-131 146 -131 399q0 257 141 419q141 163 364 163q222 0 354 -157q132 -158 132 -419l-2 -71h-588q7 -166 94 -166q68 0 89 76zM655 672q0 30 -7 55t-19.5 43t-29.5 28.5t-37 10.5q-42 0 -68 -38.5
t-26 -98.5h187z" />
    <glyph glyph-name="f" unicode="f" horiz-adv-x="697" 
d="M540 0h-401v758h-116v323h116v199q0 209 90.5 317t265.5 108q87 0 189 -28v-372q-53 38 -82 38q-62 0 -62 -111v-151h144v-323h-144v-758z" />
    <glyph glyph-name="g" unicode="g" horiz-adv-x="1141" 
d="M1049 1081v-1112q0 -127 -35 -220q-35 -86 -114 -147q-133 -103 -338 -103q-221 0 -339 95t-146 296h410q4 -88 84 -88q51 0 72 35.5t21 117.5v171q-107 -140 -252 -140q-157 0 -254 153q-96 153 -96 402q0 248 96 406q97 157 251 157q71 0 124 -36q55 -37 119 -129
l-8 142h405zM660 544q0 234 -86 234q-97 0 -97 -228q0 -235 94 -235q89 0 89 229z" />
    <glyph glyph-name="h" unicode="h" horiz-adv-x="1136" 
d="M1044 0h-401v572q0 74 -14.5 103t-50.5 29q-84 0 -84 -159v-545h-401v1689h401v-604q0 -49 -0.5 -82t-1.5 -50t-3 -36t-4 -42q97 229 284 229q130 0 202 -97q73 -97 73 -270v-737z" />
    <glyph glyph-name="i" unicode="i" horiz-adv-x="587" 
d="M494 0h-402v1081h402v-1081zM528 1416q0 -95 -69 -164q-71 -68 -165 -68q-97 0 -166 69q-68 71 -68 166q0 97 68 165q71 68 165 68q99 0 167 -69q68 -68 68 -167z" />
    <glyph glyph-name="j" unicode="j" horiz-adv-x="587" 
d="M494 -473h-399v1554h399v-1554zM527 1416q0 -95 -69 -164q-71 -68 -165 -68q-97 0 -166 69q-68 71 -68 166q0 97 68 165q71 68 165 68q99 0 167 -69q68 -68 68 -167z" />
    <glyph glyph-name="k" unicode="k" horiz-adv-x="1146" 
d="M685 0l-155 420q-11 28 -36 123v-543h-401v1689h401v-1095q13 42 28.5 83.5t32.5 84.5l130 319h434l-266 -496l293 -585h-461z" />
    <glyph glyph-name="l" unicode="l" horiz-adv-x="587" 
d="M494 0h-401v1689h401v-1689z" />
    <glyph glyph-name="m" unicode="m" horiz-adv-x="1699" 
d="M1606 0h-401v612q0 103 -61 103q-91 0 -91 -168v-547h-401v597q0 110 -68 110q-49 0 -69.5 -37.5t-20.5 -131.5v-538h-401v1081h401v-56q0 -66 -6 -124q107 203 279 203q193 0 286 -224q81 224 268 224q141 0 220 -103q65 -86 65 -259v-742z" />
    <glyph glyph-name="n" unicode="n" horiz-adv-x="1136" 
d="M1044 0h-401v572q0 74 -14.5 103t-50.5 29q-84 0 -84 -159v-545h-401v1081h401q-1 -40 -2 -74t-3 -63l-4 -69q97 229 284 229q130 0 202 -97q73 -97 73 -270v-737z" />
    <glyph glyph-name="o" unicode="o" horiz-adv-x="1129" 
d="M1067 524q0 -250 -138 -398t-370 -148q-228 0 -363 151q-134 152 -134 408t137 411q136 156 361 156q237 0 372 -155t135 -425zM678 537q0 60 -8 108.5t-23 83t-36 53.5t-47 19q-51 0 -82 -72q-31 -63 -31 -189q0 -124 31 -189q31 -72 83 -72q49 0 81 71q32 79 32 187z
" />
    <glyph glyph-name="p" unicode="p" horiz-adv-x="1146" 
d="M494 -482h-401v1563h401l-9 -153q25 48 51 81.5t56 54.5t64.5 30.5t76.5 9.5q156 0 254 -156q97 -154 97 -409q0 -259 -93 -410q-91 -151 -251 -151q-146 0 -255 169q5 -51 6 -88q3 -38 3 -91v-450zM669 551q0 106 -24.5 164.5t-69.5 58.5q-93 0 -93 -227q0 -232 90 -232
q45 0 71 62t26 174z" />
    <glyph glyph-name="q" unicode="q" horiz-adv-x="1146" 
d="M652 -482v450v53q0 35 2 62.5t7 63.5q-109 -169 -255 -169q-158 0 -251 151t-93 410q0 255 97 409q97 156 254 156q42 0 76.5 -9.5t64.5 -30.5t56 -54.5t51 -81.5l-9 153h401v-1563h-401zM477 555q0 -240 97 -240q90 0 90 231q0 228 -93 228q-43 0 -68.5 -58t-25.5 -161z
" />
    <glyph glyph-name="r" unicode="r" horiz-adv-x="797" 
d="M494 0h-401v1081h401l-21 -211q91 237 301 237v-450q-66 36 -112 36q-81 0 -124.5 -58.5t-43.5 -170.5v-464z" />
    <glyph glyph-name="s" unicode="s" horiz-adv-x="914" 
d="M54 89l146 300q108 -113 201 -113q78 0 78 56q0 48 -105 86q-283 100 -283 317q0 159 126 264q127 105 317 105q156 0 322 -88l-137 -293q-101 95 -165 95q-63 0 -63 -51q0 -55 120 -103q150 -59 204 -125q57 -66 57 -182q0 -167 -121 -273t-311 -106q-91 0 -181 23
q-42 11 -92 33.5t-113 54.5z" />
    <glyph glyph-name="t" unicode="t" horiz-adv-x="697" 
d="M549 0h-402v758h-114v323h114v318h402v-318h133v-323h-133v-758z" />
    <glyph glyph-name="u" unicode="u" horiz-adv-x="1157" 
d="M93 1081h401v-609q0 -87 17 -127q18 -33 68 -33q49 0 66 33q18 33 18 127v609h401v-663q0 -66 -10.5 -119.5t-33 -97t-58 -79.5t-84.5 -66q-132 -78 -299 -78q-169 0 -299 78q-50 30 -85.5 65.5t-58 79.5t-33 97.5t-10.5 119.5v663z" />
    <glyph glyph-name="v" unicode="v" horiz-adv-x="1032" 
d="M717 0h-419l-298 1081h406l62 -316q13 -61 24 -151.5t22 -216.5q14 115 27 200t26 146l69 338h396z" />
    <glyph glyph-name="w" unicode="w" horiz-adv-x="1580" 
d="M1265 0h-397l-82 648l-124 -648h-393l-269 1081h394l61 -347q11 -66 21.5 -141t19.5 -163q8 91 21.5 174.5t30.5 161.5l71 315h342l58 -348q11 -67 20 -142.5t17 -160.5q16 115 32 209.5t33 173.5l58 268h401z" />
    <glyph glyph-name="x" unicode="x" horiz-adv-x="1117" 
d="M1117 0h-466l-38 100q-6 17 -12 33.5t-13 34.5t-14 39.5t-15 48.5q-14 -40 -29.5 -79t-32.5 -77l-47 -100h-450l329 556l-311 525h458l42 -122q7 -18 18 -54l17 -57q15 43 21 60l22 56l45 117h445l-320 -516z" />
    <glyph glyph-name="y" unicode="y" horiz-adv-x="1056" 
d="M559 -453h-413l175 498l-321 1036h403l77 -310q16 -64 28.5 -139.5t21.5 -163.5l14 99q28 189 51 280l60 234h401z" />
    <glyph glyph-name="z" unicode="z" horiz-adv-x="1008" 
d="M905 0h-866l262 561q19 42 44.5 90.5t57.5 106.5h-305v323h871l-255 -551q-45 -97 -106 -203h297v-327z" />
    <glyph glyph-name="braceleft" unicode="{" horiz-adv-x="849" 
d="M439 603q38 -26 65.5 -55.5t43.5 -63.5q31 -61 31 -183v-344q0 -114 24 -138q25 -25 140 -25l42 1l24 1v-280l-191 -8q-203 3 -288 85q-86 83 -86 272v414q0 103 -26 147q-25 41 -101 58v261q72 15 99 54q28 37 28 127v418q0 189 86 270q85 82 288 82l191 -5v-280h-70
q-111 1 -136 -24q-24 -24 -24 -137v-346q0 -113 -29 -182q-29 -62 -111 -119z" />
    <glyph glyph-name="bar" unicode="|" horiz-adv-x="1158" 
d="M358 1544h442v-1929h-442v1929z" />
    <glyph glyph-name="braceright" unicode="}" horiz-adv-x="849" 
d="M409 603q-38 26 -65.5 55.5t-43.5 63.5q-30 64 -30 183v345q0 114 -25 138q-24 25 -139 25l-43 -1l-23 -1v280l191 8q202 -3 287 -85q87 -83 87 -272v-415q0 -103 26 -147q25 -41 101 -58v-261q-71 -15 -100 -54q-27 -39 -27 -127v-417q0 -189 -87 -270q-85 -82 -288 -82
l-190 5v280h70q111 -2 135 24q25 24 25 137v345q0 127 28 182q29 62 111 119z" />
    <glyph glyph-name="asciitilde" unicode="~" horiz-adv-x="1544" 
d="M363 1299l-147 121q124 298 336 298q78 0 263 -81q142 -63 188 -63q100 0 183 150l146 -121q-66 -158 -149 -226t-210 -68q-73 0 -258 88q-126 53 -175 53q-96 0 -177 -151z" />
    <glyph glyph-name="nonbreakingspace" unicode="&#xa0;" horiz-adv-x="616" 
 />
    <glyph glyph-name="exclamdown" unicode="&#xa1;" horiz-adv-x="746" 
d="M139 940q0 95 69 163q69 69 166 69q96 0 164 -69q69 -69 69 -166t-69 -166q-68 -68 -164 -68q-99 0 -167 68q-68 71 -68 169zM164 596h407v-1078h-407v1078z" />
    <glyph glyph-name="cent" unicode="&#xa2;" 
d="M756 252v-210h-194v255q-289 165 -289 512q0 184 72 313.5t217 201.5v183h194v-135q25 3 37 3q24 0 74 -9v-343q-85 -4 -131 -55.5t-46 -142.5q0 -82 43 -137q44 -56 107 -56h15q9 0 12 1v-373q-17 -2 -27 -3t-14 -1l-42 -2q-2 0 -8.5 -0.5z" />
    <glyph glyph-name="sterling" unicode="&#xa3;" 
d="M946 368l207 -112q-108 -283 -366 -283q-103 0 -196 40q-126 47 -173 47q-89 0 -198 -69l-116 189q52 37 97.5 64.5t83.5 46.5q42 73 42 156t-41 220h-143v216h77l-11 36q-44 153 -44 232q0 178 129 297q131 119 324 119q251 0 451 -215l-223 -222q-74 116 -153 116
q-45 0 -78 -36q-33 -35 -33 -83q0 -26 38 -158q7 -23 12 -44.5t8 -41.5h373v-216h-349l1 -27q0 -142 -100 -272q86 -6 173 -48q49 -25 84 -25q72 0 124 73z" />
    <glyph glyph-name="currency" unicode="&#xa4;" horiz-adv-x="1544" 
d="M10 277l242 242q-82 145 -82 301q0 152 89 307l-248 247l208 208l251 -250q155 83 303 83q146 0 298 -81l248 245l206 -206l-242 -242q93 -158 93 -312q0 -146 -84 -299l242 -242l-205 -207l-241 240q-155 -92 -313 -92q-155 0 -318 91l-241 -239zM776 1074
q-107 0 -181 -74q-73 -73 -73 -180q0 -102 74 -179q74 -74 177 -74q104 0 178 74q74 77 74 181q0 103 -74 177q-74 75 -175 75z" />
    <glyph glyph-name="yen" unicode="&#xa5;" 
d="M1181 684v-167h-345v-517h-417v517h-369v167h356l-65 153h-291v167h219l-233 540h435l75 -229q22 -67 39.5 -129t31.5 -119q23 85 40 146.5t30 99.5l76 231h432l-218 -540h204v-167h-271l-62 -153h333z" />
    <glyph glyph-name="brokenbar" unicode="&#xa6;" horiz-adv-x="1158" 
d="M358 1544h442v-837h-442v837zM358 355h442v-740h-442v740z" />
    <glyph glyph-name="section" unicode="&#xa7;" 
d="M105 19h345q0 -115 38 -164.5t126 -49.5q63 0 101.5 37.5t38.5 97.5q0 55 -37 89q-33 31 -155 97q-276 145 -363 240q-87 96 -87 257q0 197 167 325q-77 92 -102 158q-27 64 -27 153q0 191 138 316q136 124 352 124q285 0 398 -207q54 -101 54 -312h-330q0 132 -33 185
t-116 53q-127 0 -127 -117q0 -51 32 -86q33 -36 122 -82l150 -79q184 -97 259 -190t75 -226q0 -188 -152 -311q169 -133 169 -334q0 -212 -149 -349t-379 -137q-259 0 -401 159q-60 68 -84 145q-23 86 -23 208zM618 476q69 0 111 40.5t42 109.5t-41.5 110t-110.5 41
t-111 -40.5t-42 -106.5q0 -67 43 -110q44 -44 109 -44z" />
    <glyph glyph-name="dieresis" unicode="&#xa8;" horiz-adv-x="1158" 
d="M526 1392q0 -66 -50 -116q-50 -48 -117 -48q-72 0 -121 49t-49 119q0 68 49 116q49 49 118 49q71 0 120 -49q50 -50 50 -120zM970 1392q0 -67 -49 -116q-50 -48 -118 -48q-71 0 -120 49t-49 119q0 68 49 116q49 49 118 49q71 0 120 -49t49 -120z" />
    <glyph glyph-name="copyright" unicode="&#xa9;" horiz-adv-x="1760" 
d="M1120 625l-17 -295l-12 -5q-83 -33 -160 -33q-188 0 -302 130q-113 131 -113 347q0 221 121 351q121 132 327 132q77 0 131 -22l12 -5v-293q-4 4 -12 11.5t-21 19.5q-50 45 -103 45q-73 0 -114.5 -62t-41.5 -174q0 -109 39.5 -167.5t111.5 -58.5q59 0 130 59q4 4 10 8.5
t14 11.5zM893 1579q323 0 556 -239q234 -239 234 -569q0 -334 -235 -569q-236 -236 -566 -236t-569 236q-236 236 -236 569q0 339 236 573q235 235 580 235zM890 1411q-264 0 -447 -186q-182 -185 -182 -454q0 -263 182 -451q183 -187 438 -187q256 0 437 187t181 452
q0 262 -180 450q-179 189 -429 189z" />
    <glyph glyph-name="ordfeminine" unicode="&#xaa;" horiz-adv-x="658" 
d="M606 911h-230l2 29q1 40 6 76q-59 -119 -160 -119q-87 0 -138 88q-50 89 -50 240q0 148 52 233q53 86 142 86q92 0 149 -112q-2 20 -3 37.5t-2 33.5l-2 27h234v-619zM373 1230q0 124 -48 124q-58 0 -58 -153q0 -112 52 -112q54 0 54 141zM606 679h-570v124h570v-124z" />
    <glyph glyph-name="guillemotleft" unicode="&#xab;" horiz-adv-x="1118" 
d="M413 91l-351 465l351 465l180 -135l-263 -330l263 -330zM877 91l-352 465l352 465l179 -135l-262 -330l262 -330z" />
    <glyph glyph-name="logicalnot" unicode="&#xac;" horiz-adv-x="1158" 
d="M653 0v306h-576v384h1004v-690h-428z" />
    <glyph glyph-name="softhyphen" unicode="&#xad;" horiz-adv-x="502" 
d="M502 401h-502v309h502v-309z" />
    <glyph glyph-name="registered" unicode="&#xae;" horiz-adv-x="1760" 
d="M1274 309h-316l-118 296v-296h-293v926h285q195 0 294 -78t99 -234q0 -164 -142 -227l-7 -3zM841 813q42 0 67.5 30t25.5 78q0 89 -93 94v-202zM893 1579q323 0 556 -239q234 -239 234 -569q0 -334 -235 -569q-236 -236 -566 -236t-569 236q-236 236 -236 569
q0 339 236 573q235 235 580 235zM890 1411q-264 0 -447 -186q-182 -185 -182 -454q0 -263 182 -451q183 -187 438 -187q256 0 437 187t181 452q0 262 -180 450q-179 189 -429 189z" />
    <glyph glyph-name="macron" unicode="&#xaf;" horiz-adv-x="1158" 
d="M216 1266v224h726v-224h-726z" />
    <glyph glyph-name="macron" unicode="&#x2c9;" horiz-adv-x="1158" 
d="M216 1266v224h726v-224h-726z" />
    <glyph glyph-name="degree" unicode="&#xb0;" horiz-adv-x="1235" 
d="M623 1583q155 0 266 -108t111 -259q0 -152 -112 -260q-113 -107 -270 -107t-270 107q-112 108 -112 259q0 155 112 261q113 107 275 107zM618 1393q-75 0 -127 -52q-51 -51 -51 -125q0 -73 51 -125q52 -52 125 -52t124 52q52 52 52 125q0 72 -52 124q-51 53 -122 53z" />
    <glyph glyph-name="plusminus" unicode="&#xb1;" 
d="M76 667v241h417v412h247v-412h417v-241h-417v-397h-247v397h-417zM76 -61v240h1081v-240h-1081z" />
    <glyph glyph-name="twosuperior" unicode="&#xb2;" horiz-adv-x="816" 
d="M723 618h-662l263 341q43 57 73.5 101t47.5 79q33 67 33 131q0 76 -55 76q-56 0 -56 -107v-26q0 -10 1 -12h-256l-1 41q0 139 89 228q90 90 229 90q135 0 221 -86t86 -219q0 -199 -239 -424q54 4 109.5 5.5t116.5 1.5v-220z" />
    <glyph glyph-name="threesuperior" unicode="&#xb3;" horiz-adv-x="816" 
d="M89 897h258q0 -82 57 -82q65 0 65 80q0 92 -100 92q-16 0 -47 -3v205q12 -1 21 -1.5t14 -0.5q100 0 100 89q0 72 -50 72q-38 0 -44 -58v-7q0 -8 -1 -9h-255q9 133 92 210q86 77 217 77q127 0 213 -78t86 -193q0 -127 -110 -193q122 -69 122 -213q0 -124 -91 -203
t-233 -79q-138 0 -227 77q-87 76 -87 198v20z" />
    <glyph glyph-name="acute" unicode="&#xb4;" horiz-adv-x="1158" 
d="M455 1228l109 342h324l-203 -342h-230z" />
    <glyph glyph-name="mu" unicode="&#xb5;" horiz-adv-x="1157" 
d="M496 -473h-403v1554h401v-609q0 -87 17 -127q18 -33 68 -33q49 0 66 33q18 33 18 127v609h401v-663q0 -66 -10.5 -119.5t-33 -97.5t-58 -79.5t-85.5 -65.5q-132 -78 -293 -78q-97 0 -178 31z" />
    <glyph glyph-name="paragraph" unicode="&#xb6;" 
d="M316 -229v1017q-122 0 -197 98q-75 97 -75 258q0 400 386 400h757v-363h-153v-1410h-269v1410h-181v-1410h-268z" />
    <glyph glyph-name="periodcentered" unicode="&#xb7;" horiz-adv-x="616" 
d="M542 772q0 -94 -69 -161q-67 -67 -164 -67q-96 0 -167 68q-69 69 -69 167q0 96 68 164t164 68q99 0 168 -70q69 -69 69 -169z" />
    <glyph glyph-name="cedilla" unicode="&#xb8;" horiz-adv-x="1158" 
d="M860 -230l-263 -271l-152 110l227 284z" />
    <glyph glyph-name="onesuperior" unicode="&#xb9;" horiz-adv-x="816" 
d="M578 617h-262v703h-102v224h364v-927z" />
    <glyph glyph-name="ordmasculine" unicode="&#xba;" horiz-adv-x="648" 
d="M614 1211q0 -143 -80 -229q-79 -85 -213 -85q-132 0 -208 87q-77 89 -77 234q0 147 78 236q79 90 208 90q136 0 214 -89t78 -244zM390 1219q0 152 -65 152t-65 -150q0 -149 65 -149t65 147zM607 679h-569v124h569v-124z" />
    <glyph glyph-name="guillemotright" unicode="&#xbb;" horiz-adv-x="1118" 
d="M705 91l-180 135l263 330l-263 330l180 135l351 -465zM242 91l-180 135l263 330l-263 330l180 135l351 -465z" />
    <glyph glyph-name="onequarter" unicode="&#xbc;" horiz-adv-x="1954" 
d="M578 617h-262v703h-102v224h364v-927zM612 -102l-166 91l892 1658l171 -91zM1809 0h-264v185h-341v200l285 541h320v-534h80v-207h-80v-185zM1554 392v167q0 11 0.5 27.5t7.5 53.5l-28 -56q-29 -60 -55.5 -107t-51.5 -85h127z" />
    <glyph glyph-name="onehalf" unicode="&#xbd;" horiz-adv-x="1954" 
d="M578 617h-262v703h-102v224h364v-927zM612 -102l-166 91l892 1658l171 -91zM1861 0h-662l263 341q88 115 121 181t33 131q0 76 -55 76q-56 0 -56 -107v-26q0 -10 1 -12h-256l-1 41q0 138 89 227q90 90 229 90q136 0 221 -85q86 -86 86 -220q0 -199 -239 -424
q54 4 109.5 5.5t116.5 1.5v-220z" />
    <glyph glyph-name="threequarters" unicode="&#xbe;" horiz-adv-x="1954" 
d="M89 897h258q0 -82 57 -82q65 0 65 80q0 92 -100 92q-16 0 -47 -3v205q12 -1 21 -1.5t14 -0.5q100 0 100 89q0 72 -50 72q-38 0 -44 -58v-7q0 -8 -1 -9h-255q9 133 92 210q86 77 217 77q127 0 213 -78t86 -193q0 -127 -110 -193q122 -69 122 -213q0 -124 -91 -203
t-233 -79q-138 0 -227 77q-87 76 -87 198v20zM612 -102l-166 91l892 1658l171 -91zM1809 0h-264v185h-341v200l285 541h320v-534h80v-207h-80v-185zM1554 392v167v28q1 7 2.5 20t4.5 33l-27 -56q-29 -60 -55.5 -107t-51.5 -85h127z" />
    <glyph glyph-name="questiondown" unicode="&#xbf;" horiz-adv-x="1178" 
d="M351 939q0 96 69 164q69 69 165 69t164 -69q68 -71 68 -167q0 -95 -68 -166q-68 -69 -164 -69q-99 0 -166 69q-68 71 -68 169zM389 590h397v-378q-21 1 -36.5 1.5t-25.5 0.5q-114 0 -165.5 -48t-51.5 -154q0 -170 89 -170q87 0 87 175h402q0 -216 -91 -337
q-61 -84 -170 -133q-101 -49 -229 -49q-220 0 -361 143q-141 142 -141 363q0 169 75.5 278t220.5 149v159z" />
    <glyph glyph-name="Agrave" unicode="&#xc0;" horiz-adv-x="1233" 
d="M350 2017h326l101 -349h-232zM1220 0h-431l-31 196h-281l-34 -196h-431l371 1544h510zM709 527l-27 180q-1 1 -4 27q-2 22 -21 174q-2 17 -5 46.5t-8 74.5l-13 146q-2 -21 -5.5 -47t-7.5 -57q-7 -62 -10 -86t-4 -29l-29 -187l-42 -242h176z" />
    <glyph glyph-name="Aacute" unicode="&#xc1;" horiz-adv-x="1233" 
d="M925 2017l-196 -349h-232l101 349h327zM1220 0h-431l-31 196h-281l-34 -196h-431l371 1544h510zM709 527l-27 180q-1 1 -4 27q-2 22 -21 174q-2 17 -5 46.5t-8 74.5l-13 146q-2 -21 -5.5 -47t-7.5 -57q-7 -62 -10 -86t-4 -29l-29 -187l-42 -242h176z" />
    <glyph glyph-name="Acircumflex" unicode="&#xc2;" horiz-adv-x="1233" 
d="M1006 1668h-314l-80 139l-87 -139h-266l203 319h353zM1220 0h-431l-31 196h-281l-34 -196h-431l371 1544h510zM709 527l-27 180q-1 1 -4 27q-2 22 -21 174q-2 17 -5 46.5t-8 74.5l-13 146q-2 -21 -5.5 -47t-7.5 -57q-7 -62 -10 -86t-4 -29l-29 -187l-42 -242h176z" />
    <glyph glyph-name="Atilde" unicode="&#xc3;" horiz-adv-x="1233" 
d="M1220 0h-431l-31 196h-281l-34 -196h-431l371 1544h510zM709 527l-27 180q-1 1 -4 27q-2 22 -21 174q-2 17 -5 46.5t-8 74.5l-13 146q-2 -21 -5.5 -47t-7.5 -57q-7 -62 -10 -86t-4 -29l-29 -187l-42 -242h176zM819 1981h207l1 -33q0 -122 -68 -199t-176 -77
q-63 0 -174 47q-61 31 -98 31q-57 0 -61 -82h-211q0 151 61 228t173 77q62 0 146 -32l69 -29q31 -16 66 -16q59 0 65 85z" />
    <glyph glyph-name="Adieresis" unicode="&#xc4;" horiz-adv-x="1233" 
d="M1030 1833q0 -67 -49 -116t-118 -49q-71 0 -120 49t-49 119q0 69 49 118t118 49q70 0 120 -50q49 -49 49 -120zM569 1835q0 -68 -50 -118q-49 -49 -117 -49q-69 0 -118 49t-49 118q0 70 49 119t118 49q70 0 118 -49q49 -49 49 -119zM1220 0h-431l-31 196h-281l-34 -196
h-431l371 1544h510zM709 527l-27 180q-1 1 -4 27q-2 22 -21 174q-2 17 -5 46.5t-8 74.5l-13 146q-2 -21 -5.5 -47t-7.5 -57q-7 -62 -10 -86t-4 -29l-29 -187l-42 -242h176z" />
    <glyph glyph-name="Aring" unicode="&#xc5;" horiz-adv-x="1233" 
d="M1220 0h-431l-31 196h-281l-34 -196h-431l371 1544h510zM709 527l-27 180q-1 1 -4 27q-2 22 -21 174q-2 17 -5 46.5t-8 74.5l-13 146q-2 -21 -5.5 -47t-7.5 -57q-7 -62 -10 -86t-4 -29l-29 -187l-42 -242h176zM833 1852q0 -82 -59 -141t-140 -59q-84 0 -143 59
q-59 62 -59 144q0 83 58 141q59 59 142 59t142 -59t59 -144zM719 1852q0 37 -25 62t-61 25q-35 0 -60 -24.5t-25 -60.5q0 -18 7 -33.5t18.5 -27t27 -18.5t33.5 -7q36 0 60.5 25.5t24.5 58.5z" />
    <glyph glyph-name="AE" unicode="&#xc6;" horiz-adv-x="1425" 
d="M1355 0h-594l-28 196h-268l-33 -196h-432l357 1544h998v-363h-415l35 -225h348v-349h-287l41 -236h278v-371zM517 517h172l-54 398q-10 71 -13 118t-7 73q-2 25 -6 66l-9 -81q-5 -49 -9 -85.5t-8 -61.5q-4 -24 -7 -46.5t-7 -43.5z" />
    <glyph glyph-name="Ccedilla" unicode="&#xc7;" horiz-adv-x="1031" 
d="M976 475l-24 -446q-139 -56 -249 -56q-259 0 -436 190q-198 213 -198 603q0 365 186 586q186 220 497 220q101 0 206 -38v-441q-93 93 -191 93q-128 0 -200 -109q-72 -110 -72 -304q0 -94 18 -168t51.5 -125t82.5 -78t112 -27q108 0 217 100zM847 -245l-325 -308
l-168 106l279 340z" />
    <glyph glyph-name="Egrave" unicode="&#xc8;" horiz-adv-x="953" 
d="M108 0v1544h775v-363h-358v-225h321v-349h-321v-236h358v-371h-775zM226 2017h326l101 -349h-232z" />
    <glyph glyph-name="Eacute" unicode="&#xc9;" horiz-adv-x="953" 
d="M108 0v1544h775v-363h-358v-225h321v-349h-321v-236h358v-371h-775zM793 2017l-195 -349h-233l101 349h327z" />
    <glyph glyph-name="Ecircumflex" unicode="&#xca;" horiz-adv-x="953" 
d="M108 0v1544h775v-363h-358v-225h321v-349h-321v-236h358v-371h-775zM869 1668h-314l-80 139l-87 -139h-265l203 319h353z" />
    <glyph glyph-name="Edieresis" unicode="&#xcb;" horiz-adv-x="953" 
d="M893 1833q0 -66 -50 -116q-49 -49 -117 -49q-71 0 -120 49t-49 119q0 69 49 118t118 49q70 0 120 -50q49 -49 49 -120zM432 1835q0 -68 -50 -118q-49 -49 -117 -49q-69 0 -118 49t-49 118q0 70 49 119t118 49q70 0 118 -49q49 -49 49 -119zM108 0v1544h775v-363h-358
v-225h321v-349h-321v-236h358v-371h-775z" />
    <glyph glyph-name="Igrave" unicode="&#xcc;" horiz-adv-x="633" 
d="M525 0h-417v1544h417v-1544zM27 2017h327l100 -349h-232z" />
    <glyph glyph-name="Iacute" unicode="&#xcd;" horiz-adv-x="633" 
d="M525 0h-417v1544h417v-1544zM616 2017l-195 -349h-232l101 349h326z" />
    <glyph glyph-name="Icircumflex" unicode="&#xce;" horiz-adv-x="633" 
d="M525 0h-417v1544h417v-1544zM674 1668h-314l-64 139l-72 -139h-264l186 319h353z" />
    <glyph glyph-name="Idieresis" unicode="&#xcf;" horiz-adv-x="633" 
d="M525 0h-417v1544h417v-1544zM660 1813q0 -59 -44 -103q-44 -42 -102 -42q-63 0 -106 43t-43 104t43 103q43 43 104 43q62 0 105 -43t43 -105zM269 1815q0 -61 -43 -104t-103 -43q-61 0 -104 43q-42 43 -42 104t42 105q43 43 104 43t103 -43q43 -43 43 -105z" />
    <glyph glyph-name="Eth" unicode="&#xd0;" horiz-adv-x="1245" 
d="M108 0v672h-93v239h93v633h360q309 0 481 -166q226 -217 226 -607q0 -384 -191 -593q-163 -178 -487 -178h-389zM525 373q223 10 223 386q0 185 -57 292q-56 108 -153 108h-13v-248h123v-239h-123v-299z" />
    <glyph glyph-name="Ntilde" unicode="&#xd1;" horiz-adv-x="1303" 
d="M108 0v1544h398l209 -542q17 -48 38.5 -110t47.5 -143l43 -136q-23 201 -35 344t-12 240v347h398v-1544h-398l-210 568q-33 91 -59.5 170.5t-46.5 151.5q13 -163 19 -284t6 -212v-394h-398zM847 1981h207l1 -33q0 -122 -68 -199t-176 -77q-63 0 -174 47q-61 31 -98 31
q-57 0 -61 -82h-211q0 151 61 228t173 77q62 0 146 -32l69 -29q31 -16 66 -16q59 0 65 85z" />
    <glyph glyph-name="Ograve" unicode="&#xd2;" horiz-adv-x="1313" 
d="M382 2017h326l101 -349h-232zM1243 767q0 -353 -161 -574q-160 -220 -417 -220q-228 0 -391 169q-205 214 -205 642q0 410 214 627q159 161 377 161q267 0 425 -218t158 -587zM810 764q0 419 -148 419q-74 0 -118 -110q-43 -102 -43 -300q0 -195 40.5 -302.5
t112.5 -107.5q74 0 114 106q42 106 42 295z" />
    <glyph glyph-name="Oacute" unicode="&#xd3;" horiz-adv-x="1313" 
d="M948 2017l-195 -349h-232l100 349h327zM1243 767q0 -353 -161 -574q-160 -220 -417 -220q-228 0 -391 169q-205 214 -205 642q0 410 214 627q159 161 377 161q267 0 425 -218t158 -587zM810 764q0 419 -148 419q-74 0 -118 -110q-43 -102 -43 -300q0 -195 40.5 -302.5
t112.5 -107.5q74 0 114 106q42 106 42 295z" />
    <glyph glyph-name="Ocircumflex" unicode="&#xd4;" horiz-adv-x="1313" 
d="M1021 1668h-314l-80 139l-87 -139h-265l203 319h353zM1243 767q0 -353 -161 -574q-160 -220 -417 -220q-228 0 -391 169q-205 214 -205 642q0 410 214 627q159 161 377 161q267 0 425 -218t158 -587zM810 764q0 419 -148 419q-74 0 -118 -110q-43 -102 -43 -300
q0 -195 40.5 -302.5t112.5 -107.5q74 0 114 106q42 106 42 295z" />
    <glyph glyph-name="Otilde" unicode="&#xd5;" horiz-adv-x="1313" 
d="M1243 767q0 -353 -161 -574q-160 -220 -417 -220q-228 0 -391 169q-205 214 -205 642q0 410 214 627q159 161 377 161q267 0 425 -218t158 -587zM810 764q0 419 -148 419q-74 0 -118 -110q-43 -102 -43 -300q0 -195 40.5 -302.5t112.5 -107.5q74 0 114 106q42 106 42 295
zM851 1981h207l1 -33q0 -122 -68 -199t-176 -77q-63 0 -174 47q-61 31 -98 31q-57 0 -61 -82h-211q0 151 61 228t173 77q62 0 146 -32l69 -29q31 -16 66 -16q59 0 65 85z" />
    <glyph glyph-name="Odieresis" unicode="&#xd6;" horiz-adv-x="1313" 
d="M1055 1833q0 -66 -50 -116q-49 -49 -117 -49q-72 0 -121 49t-49 119q0 69 49 118t119 49t120 -50q49 -49 49 -120zM593 1835q0 -68 -50 -118q-49 -49 -117 -49q-69 0 -118 49q-48 49 -48 118t48 119q49 49 118 49q70 0 118 -49q49 -49 49 -119zM1243 767
q0 -353 -161 -574q-160 -220 -417 -220q-228 0 -391 169q-205 214 -205 642q0 410 214 627q159 161 377 161q267 0 425 -218t158 -587zM810 764q0 419 -148 419q-74 0 -118 -110q-43 -102 -43 -300q0 -195 40.5 -302.5t112.5 -107.5q74 0 114 106q42 106 42 295z" />
    <glyph glyph-name="multiply" unicode="&#xd7;" 
d="M124 1103l177 177l318 -318l315 316l173 -173l-316 -315l318 -318l-177 -177l-318 318l-315 -316l-173 173l316 315z" />
    <glyph glyph-name="Oslash" unicode="&#xd8;" horiz-adv-x="1313" 
d="M186 -43l-146 99l142 213q-32 60 -54 115.5t-35 108.5q-24 106 -24 269q0 374 158 592q159 218 430 218q198 0 368 -153l103 149l151 -105l-138 -198q102 -221 102 -477q0 -428 -202 -645q-73 -79 -179 -125q-105 -45 -213 -45q-186 0 -353 137zM551 440q30 -89 106 -89
q75 0 120 107q46 101 46 282q0 19 -1 48t-3 71zM762 1099q-35 96 -110 96q-72 0 -117 -110t-45 -285q0 -38 3 -119z" />
    <glyph glyph-name="Ugrave" unicode="&#xd9;" horiz-adv-x="1263" 
d="M342 2017h327l100 -349h-232zM738 1544h417v-1092q0 -137 -43 -222q-42 -89 -140 -161q-132 -96 -321 -96q-214 0 -359 106q-184 135 -184 432v1033h417v-996q0 -101 24.5 -143t82.5 -42q60 0 83 39q23 41 23 145v997z" />
    <glyph glyph-name="Uacute" unicode="&#xda;" horiz-adv-x="1263" 
d="M939 2017l-195 -349h-232l101 349h326zM738 1544h417v-1092q0 -137 -43 -222q-42 -89 -140 -161q-132 -96 -321 -96q-214 0 -359 106q-184 135 -184 432v1033h417v-996q0 -101 24.5 -143t82.5 -42q60 0 83 39q23 41 23 145v997z" />
    <glyph glyph-name="Ucircumflex" unicode="&#xdb;" horiz-adv-x="1263" 
d="M1005 1668h-314l-81 139l-86 -139h-266l203 319h353zM738 1544h417v-1092q0 -137 -43 -222q-42 -89 -140 -161q-132 -96 -321 -96q-214 0 -359 106q-184 135 -184 432v1033h417v-996q0 -101 24.5 -143t82.5 -42q60 0 83 39q23 41 23 145v997z" />
    <glyph glyph-name="Udieresis" unicode="&#xdc;" horiz-adv-x="1263" 
d="M1030 1833q0 -67 -49 -116t-118 -49q-71 0 -120 49t-49 119q0 69 49 118t119 49q69 0 119 -50q49 -49 49 -120zM569 1835q0 -68 -50 -118q-49 -49 -117 -49q-69 0 -118 49t-49 118q0 70 49 119t118 49q70 0 118 -49q49 -49 49 -119zM738 1544h417v-1092q0 -137 -43 -222
q-42 -89 -140 -161q-132 -96 -321 -96q-214 0 -359 106q-184 135 -184 432v1033h417v-996q0 -101 24.5 -143t82.5 -42q60 0 83 39q23 41 23 145v997z" />
    <glyph glyph-name="Yacute" unicode="&#xdd;" horiz-adv-x="1159" 
d="M800 0h-417v654l-383 890h435l75 -229q22 -67 39.5 -129t31.5 -119q23 85 40 146.5t30 99.5l76 231h432l-359 -890v-654zM902 2017l-196 -349h-232l101 349h327z" />
    <glyph glyph-name="Thorn" unicode="&#xde;" horiz-adv-x="1170" 
d="M525 0h-417v1544h417v-216q293 0 450 -136t157 -390q0 -281 -183 -419q-125 -93 -359 -93h-65v-290zM525 636h19q76 0 121 47t45 126q0 78 -44 131q-44 51 -112 51q-5 0 -12 -0.5t-17 -1.5v-353z" />
    <glyph glyph-name="germandbls" unicode="&#xdf;" horiz-adv-x="1218" 
d="M538 0h-402v758h-111v323h111q0 91 3.5 154t10.5 102q15 86 61 153q65 104 175 165q109 61 238 61q195 0 335 -131q138 -131 138 -315q0 -63 -14.5 -117t-41.5 -95.5t-66.5 -69.5t-88.5 -40q103 -16 163 -82q108 -122 108 -317q0 -137 -54 -258q-53 -119 -146 -191
q-130 -100 -317 -100v330q102 30 102 214q0 200 -102 214v323q77 8 77 143q0 133 -91 133q-88 0 -88 -147v-1210z" />
    <glyph glyph-name="agrave" unicode="&#xe0;" horiz-adv-x="1150" 
d="M1058 0h-402q5 54 8 103t6 79q-104 -204 -279 -204q-152 0 -241 152q-88 151 -88 418q0 258 91 406q91 150 248 150q161 0 260 -194q-2 20 -3 35t-2 25l-4 63l-3 48h409v-1081zM652 554q0 60 -4.5 102t-14.5 68.5t-26 38t-39 11.5q-102 0 -102 -271q0 -194 91 -194
q95 0 95 245zM747 1228h-230l-203 342h324z" />
    <glyph glyph-name="aacute" unicode="&#xe1;" horiz-adv-x="1150" 
d="M1058 0h-402q5 54 8 103t6 79q-104 -204 -279 -204q-152 0 -241 152q-88 151 -88 418q0 258 91 406q91 150 248 150q161 0 260 -194q-2 20 -3 35t-2 25l-4 63l-3 48h409v-1081zM652 554q0 60 -4.5 102t-14.5 68.5t-26 38t-39 11.5q-102 0 -102 -271q0 -194 91 -194
q95 0 95 245zM468 1228l109 342h324l-203 -342h-230z" />
    <glyph glyph-name="acircumflex" unicode="&#xe2;" horiz-adv-x="1150" 
d="M1058 0h-402q5 54 8 103t6 79q-104 -204 -279 -204q-152 0 -241 152q-88 151 -88 418q0 258 91 406q91 150 248 150q161 0 260 -194q-2 20 -3 35t-2 25l-4 63l-3 48h409v-1081zM652 554q0 60 -4.5 102t-14.5 68.5t-26 38t-39 11.5q-102 0 -102 -271q0 -194 91 -194
q95 0 95 245zM951 1228h-294l-82 156l-90 -156h-239l178 321h362z" />
    <glyph glyph-name="atilde" unicode="&#xe3;" horiz-adv-x="1150" 
d="M1058 0h-402q5 54 8 103t6 79q-104 -204 -279 -204q-152 0 -241 152q-88 151 -88 418q0 258 91 406q91 150 248 150q161 0 260 -194q-2 20 -3 35t-2 25l-4 63l-3 48h409v-1081zM652 554q0 60 -4.5 102t-14.5 68.5t-26 38t-39 11.5q-102 0 -102 -271q0 -194 91 -194
q95 0 95 245zM786 1541h207l1 -33q0 -122 -68 -199t-176 -77q-63 0 -174 47q-61 31 -98 31q-57 0 -61 -82h-211q0 151 61 228t173 77q62 0 146 -32l69 -29q31 -16 66 -16q59 0 65 85z" />
    <glyph glyph-name="adieresis" unicode="&#xe4;" horiz-adv-x="1150" 
d="M1058 0h-402q5 54 8 103t6 79q-104 -204 -279 -204q-152 0 -241 152q-88 151 -88 418q0 258 91 406q91 150 248 150q161 0 260 -194q-2 20 -3 35t-2 25l-4 63l-3 48h409v-1081zM652 554q0 60 -4.5 102t-14.5 68.5t-26 38t-39 11.5q-102 0 -102 -271q0 -194 91 -194
q95 0 95 245zM547 1392q0 -66 -50 -116q-50 -48 -117 -48q-72 0 -121 49t-49 119q0 68 49 116q49 49 118 49q71 0 120 -49q50 -50 50 -120zM991 1392q0 -67 -49 -116q-50 -48 -118 -48q-71 0 -120 49t-49 119q0 68 49 116q49 49 118 49q71 0 120 -49t49 -120z" />
    <glyph glyph-name="aring" unicode="&#xe5;" horiz-adv-x="1150" 
d="M1058 0h-402q5 54 8 103t6 79q-104 -204 -279 -204q-152 0 -241 152q-88 151 -88 418q0 258 91 406q91 150 248 150q161 0 260 -194q-2 20 -3 35t-2 25l-4 63l-3 48h409v-1081zM652 554q0 60 -4.5 102t-14.5 68.5t-26 38t-39 11.5q-102 0 -102 -271q0 -194 91 -194
q95 0 95 245zM847 1431q0 -91 -66 -155q-64 -64 -156 -64q-90 0 -158 65q-65 65 -65 157t65 157q64 66 157 66t158 -66q65 -68 65 -160zM717 1433q0 42 -27 69t-67 27q-20 0 -37 -7.5t-29.5 -20.5t-20 -30.5t-7.5 -36.5q0 -20 7.5 -37t20 -30t29.5 -20.5t37 -7.5
q19 0 36.5 7.5t30 20.5t20 30t7.5 36z" />
    <glyph glyph-name="ae" unicode="&#xe6;" horiz-adv-x="1702" 
d="M1245 355l380 -8q-49 -191 -166 -281q-115 -88 -317 -88q-180 0 -320 110q-164 -110 -348 -110q-179 0 -296 105q-116 107 -116 268q0 160 106 253q106 94 287 94q71 0 204 -23q-20 131 -213 131q-132 0 -265 -62v313q180 49 322 49q202 0 333 -107q152 107 310 107
q224 0 359 -157q136 -157 136 -416l-2 -74h-593q10 -186 106 -186q65 0 93 82zM663 346q0 96 -106 96q-48 0 -76 -27t-28 -70q0 -93 105 -93t105 94zM1249 675q-20 150 -105 150q-83 0 -96 -150h201z" />
    <glyph glyph-name="ccedilla" unicode="&#xe7;" horiz-adv-x="701" 
d="M655 353v-369q-36 -4 -63 -5.5t-45 -1.5q-180 0 -301 108q-82 73 -133 200t-51 261q0 238 146 399q145 159 366 159q13 0 33 -1t48 -3v-352q-178 -12 -178 -194q0 -82 44 -144q45 -59 107 -59q6 0 12.5 0.5t14.5 1.5zM617 -230l-263 -271l-152 110l227 284z" />
    <glyph glyph-name="egrave" unicode="&#xe8;" horiz-adv-x="1115" 
d="M646 366l392 -8q-42 -189 -163.5 -284.5t-317.5 -95.5q-232 0 -364 144q-131 146 -131 399q0 257 141 419q141 163 364 163q222 0 354 -157q132 -158 132 -419l-2 -71h-588q7 -166 94 -166q68 0 89 76zM655 672q0 30 -7 55t-19.5 43t-29.5 28.5t-37 10.5q-42 0 -68 -38.5
t-26 -98.5h187zM706 1228h-230l-203 342h324z" />
    <glyph glyph-name="eacute" unicode="&#xe9;" horiz-adv-x="1115" 
d="M646 366l392 -8q-42 -189 -163.5 -284.5t-317.5 -95.5q-232 0 -364 144q-131 146 -131 399q0 257 141 419q141 163 364 163q222 0 354 -157q132 -158 132 -419l-2 -71h-588q7 -166 94 -166q68 0 89 76zM655 672q0 30 -7 55t-19.5 43t-29.5 28.5t-37 10.5q-42 0 -68 -38.5
t-26 -98.5h187zM420 1228l109 342h324l-203 -342h-230z" />
    <glyph glyph-name="ecircumflex" unicode="&#xea;" horiz-adv-x="1115" 
d="M646 366l392 -8q-42 -189 -163.5 -284.5t-317.5 -95.5q-232 0 -364 144q-131 146 -131 399q0 257 141 419q141 163 364 163q222 0 354 -157q132 -158 132 -419l-2 -71h-588q7 -166 94 -166q68 0 89 76zM655 672q0 30 -7 55t-19.5 43t-29.5 28.5t-37 10.5q-42 0 -68 -38.5
t-26 -98.5h187zM911 1228h-294l-82 156l-90 -156h-239l178 321h362z" />
    <glyph glyph-name="edieresis" unicode="&#xeb;" horiz-adv-x="1115" 
d="M646 366l392 -8q-42 -189 -163.5 -284.5t-317.5 -95.5q-232 0 -364 144q-131 146 -131 399q0 257 141 419q141 163 364 163q222 0 354 -157q132 -158 132 -419l-2 -71h-588q7 -166 94 -166q68 0 89 76zM655 672q0 30 -7 55t-19.5 43t-29.5 28.5t-37 10.5q-42 0 -68 -38.5
t-26 -98.5h187zM506 1392q0 -66 -50 -116q-50 -48 -117 -48q-72 0 -121 49t-49 119q0 68 49 116q49 49 118 49q71 0 120 -49q50 -50 50 -120zM950 1392q0 -67 -49 -116q-50 -48 -118 -48q-71 0 -120 49t-49 119q0 68 49 116q49 49 118 49q71 0 120 -49t49 -120z" />
    <glyph glyph-name="igrave" unicode="&#xec;" horiz-adv-x="587" 
d="M494 0h-401v1081h401v-1081zM433 1228h-230l-203 342h324z" />
    <glyph glyph-name="iacute" unicode="&#xed;" horiz-adv-x="587" 
d="M494 0h-401v1081h401v-1081zM156 1228l109 342h324l-203 -342h-230z" />
    <glyph glyph-name="icircumflex" unicode="&#xee;" horiz-adv-x="586" 
d="M494 0h-401v1081h401v-1081zM630 1228h-294l-66 156l-75 -156h-238l161 321h362z" />
    <glyph glyph-name="idieresis" unicode="&#xef;" horiz-adv-x="587" 
d="M494 0h-401v1081h401v-1081zM628 1373q0 -59 -44 -103q-44 -42 -103 -42q-62 0 -105 43t-43 104t43 103q43 43 104 43q62 0 105 -43t43 -105zM252 1375q0 -61 -43 -104t-103 -43q-61 0 -104 43q-42 43 -42 104t42 105q43 43 104 43t103 -43q43 -43 43 -105z" />
    <glyph glyph-name="eth" unicode="&#xf0;" horiz-adv-x="1130" 
d="M94 1531l105 163q178 -48 347 -153l266 146l81 -151l-193 -106q369 -324 369 -857q0 -285 -133 -439q-132 -156 -372 -156q-232 0 -367 150q-135 151 -135 410q0 250 134 408q135 158 348 158q-23 55 -49.5 101t-57.5 83l-253 -140l-82 147l212 117q-24 13 -36 21
q-52 32 -97.5 56.5t-86.5 41.5zM677 535q0 60 -8 109t-23 83.5t-36 53.5t-47 19q-51 0 -82 -72q-31 -65 -31 -189t31 -189q31 -72 82 -72q50 0 82 71q32 79 32 186z" />
    <glyph glyph-name="ntilde" unicode="&#xf1;" horiz-adv-x="1136" 
d="M1044 0h-401v572q0 74 -14.5 103t-50.5 29q-84 0 -84 -159v-545h-401v1081h401q-1 -40 -2 -74t-3 -63l-4 -69q97 229 284 229q130 0 202 -97q73 -97 73 -270v-737zM756 1541h207l1 -33q0 -122 -68 -199t-176 -77q-63 0 -174 47q-61 31 -98 31q-57 0 -61 -82h-211
q0 151 61 228t173 77q62 0 146 -32l69 -29q31 -16 66 -16q59 0 65 85z" />
    <glyph glyph-name="ograve" unicode="&#xf2;" horiz-adv-x="1129" 
d="M1067 524q0 -250 -138 -398t-370 -148q-228 0 -363 151q-134 152 -134 408t137 411q136 156 361 156q237 0 372 -155t135 -425zM678 537q0 60 -8 108.5t-23 83t-36 53.5t-47 19q-51 0 -82 -72q-31 -63 -31 -189q0 -124 31 -189q31 -72 83 -72q49 0 81 71q32 79 32 187z
M705 1228h-230l-203 342h324z" />
    <glyph glyph-name="oacute" unicode="&#xf3;" horiz-adv-x="1129" 
d="M1067 524q0 -250 -138 -398t-370 -148q-228 0 -363 151q-134 152 -134 408t137 411q136 156 361 156q237 0 372 -155t135 -425zM678 537q0 60 -8 108.5t-23 83t-36 53.5t-47 19q-51 0 -82 -72q-31 -63 -31 -189q0 -124 31 -189q31 -72 83 -72q49 0 81 71q32 79 32 187z
M427 1228l109 342h324l-203 -342h-230z" />
    <glyph glyph-name="ocircumflex" unicode="&#xf4;" horiz-adv-x="1129" 
d="M1067 524q0 -250 -138 -398t-370 -148q-228 0 -363 151q-134 152 -134 408t137 411q136 156 361 156q237 0 372 -155t135 -425zM678 537q0 60 -8 108.5t-23 83t-36 53.5t-47 19q-51 0 -82 -72q-31 -63 -31 -189q0 -124 31 -189q31 -72 83 -72q49 0 81 71q32 79 32 187z
M918 1228h-294l-82 156l-90 -156h-239l178 321h362z" />
    <glyph glyph-name="otilde" unicode="&#xf5;" horiz-adv-x="1129" 
d="M1067 524q0 -250 -138 -398t-370 -148q-228 0 -363 151q-134 152 -134 408t137 411q136 156 361 156q237 0 372 -155t135 -425zM678 537q0 60 -8 108.5t-23 83t-36 53.5t-47 19q-51 0 -82 -72q-31 -63 -31 -189q0 -124 31 -189q31 -72 83 -72q49 0 81 71q32 79 32 187z
M760 1541h207l1 -33q0 -122 -68 -199t-176 -77q-63 0 -174 47q-61 31 -98 31q-57 0 -61 -82h-211q0 151 61 228t173 77q62 0 146 -32l69 -29q31 -16 66 -16q59 0 65 85z" />
    <glyph glyph-name="odieresis" unicode="&#xf6;" horiz-adv-x="1129" 
d="M1067 524q0 -250 -138 -398t-370 -148q-228 0 -363 151q-134 152 -134 408t137 411q136 156 361 156q237 0 372 -155t135 -425zM678 537q0 60 -8 108.5t-23 83t-36 53.5t-47 19q-51 0 -82 -72q-31 -63 -31 -189q0 -124 31 -189q31 -72 83 -72q49 0 81 71q32 79 32 187z
M514 1392q0 -66 -50 -116q-50 -48 -117 -48q-72 0 -121 49t-49 119q0 68 49 116q49 49 118 49q71 0 120 -49q50 -50 50 -120zM958 1392q0 -67 -49 -116q-50 -48 -118 -48q-71 0 -120 49t-49 119q0 68 49 116q49 49 118 49q71 0 120 -49t49 -120z" />
    <glyph glyph-name="divide" unicode="&#xf7;" 
d="M91 667v241h1050v-241h-1050zM807 350q0 -76 -56 -132q-56 -54 -134 -54q-80 0 -136 56t-56 135q0 78 55 133q56 56 134 56q81 0 137 -57q56 -56 56 -137zM807 1217q0 -75 -56 -131q-55 -55 -134 -55q-80 0 -136 56q-56 59 -56 136q0 78 55 133t134 55q81 0 137 -56
t56 -138z" />
    <glyph glyph-name="oslash" unicode="&#xf8;" horiz-adv-x="1129" 
d="M327 26l-108 -154l-156 111l115 168q-116 161 -116 386q0 256 137 411q136 156 361 156q130 0 244 -54l106 152l157 -108l-116 -167q116 -158 116 -397q0 -255 -137 -404q-136 -148 -371 -148q-123 0 -232 48zM678 537q0 60 -8 108.5t-23 83t-36 53.5t-47 19
q-51 0 -82 -72q-31 -63 -31 -189q0 -124 31 -189q31 -72 83 -72q49 0 81 71q32 79 32 187z" />
    <glyph glyph-name="ugrave" unicode="&#xf9;" horiz-adv-x="1157" 
d="M93 1081h401v-609q0 -87 17 -127q18 -33 68 -33q49 0 66 33q18 33 18 127v609h401v-663q0 -66 -10.5 -119.5t-33 -97t-58 -79.5t-84.5 -66q-132 -78 -299 -78q-169 0 -299 78q-50 30 -85.5 65.5t-58 79.5t-33 97.5t-10.5 119.5v663zM711 1228h-230l-203 342h324z" />
    <glyph glyph-name="uacute" unicode="&#xfa;" horiz-adv-x="1157" 
d="M93 1081h401v-609q0 -87 17 -127q18 -33 68 -33q49 0 66 33q18 33 18 127v609h401v-663q0 -66 -10.5 -119.5t-33 -97t-58 -79.5t-84.5 -66q-132 -78 -299 -78q-169 0 -299 78q-50 30 -85.5 65.5t-58 79.5t-33 97.5t-10.5 119.5v663zM455 1228l109 342h324l-203 -342h-230
z" />
    <glyph glyph-name="ucircumflex" unicode="&#xfb;" horiz-adv-x="1157" 
d="M93 1081h401v-609q0 -87 17 -127q18 -33 68 -33q49 0 66 33q18 33 18 127v609h401v-663q0 -66 -10.5 -119.5t-33 -97t-58 -79.5t-84.5 -66q-132 -78 -299 -78q-169 0 -299 78q-50 30 -85.5 65.5t-58 79.5t-33 97.5t-10.5 119.5v663zM932 1228h-294l-82 156l-90 -156h-239
l178 321h362z" />
    <glyph glyph-name="udieresis" unicode="&#xfc;" horiz-adv-x="1157" 
d="M93 1081h401v-609q0 -87 17 -127q18 -33 68 -33q49 0 66 33q18 33 18 127v609h401v-663q0 -66 -10.5 -119.5t-33 -97t-58 -79.5t-84.5 -66q-132 -78 -299 -78q-169 0 -299 78q-50 30 -85.5 65.5t-58 79.5t-33 97.5t-10.5 119.5v663zM526 1392q0 -66 -50 -116
q-50 -48 -117 -48q-72 0 -121 49t-49 119q0 68 49 116q49 49 118 49q71 0 120 -49q50 -50 50 -120zM970 1392q0 -67 -49 -116q-50 -48 -118 -48q-71 0 -120 49t-49 119q0 68 49 116q49 49 118 49q71 0 120 -49t49 -120z" />
    <glyph glyph-name="yacute" unicode="&#xfd;" horiz-adv-x="1056" 
d="M559 -453h-413l175 498l-321 1036h403l77 -310q16 -64 28.5 -139.5t21.5 -163.5l14 99q28 189 51 280l60 234h401zM412 1228l110 342h323l-203 -342h-230z" />
    <glyph glyph-name="thorn" unicode="&#xfe;" horiz-adv-x="1146" 
d="M494 -482h-401v2171h401v-608q0 -59 -9 -153q25 48 51 81.5t56 54.5t64.5 30.5t76.5 9.5q156 0 254 -156q97 -154 97 -409q0 -259 -93 -410q-91 -151 -251 -151q-146 0 -255 169q5 -48 7 -92.5t2 -86.5v-450zM669 551q0 106 -24.5 164.5t-69.5 58.5q-93 0 -93 -227
q0 -232 90 -232q45 0 71 62t26 174z" />
    <glyph glyph-name="ydieresis" unicode="&#xff;" horiz-adv-x="1056" 
d="M559 -453h-413l175 498l-321 1036h403l77 -310q16 -64 28.5 -139.5t21.5 -163.5l14 99q28 189 51 280l60 234h401zM476 1392q0 -66 -50 -116q-50 -48 -117 -48q-72 0 -121 49t-49 119q0 68 49 116q49 49 118 49q71 0 120 -49q50 -50 50 -120zM920 1392q0 -67 -49 -116
q-50 -48 -118 -48q-71 0 -120 49t-49 119q0 68 49 116q49 49 118 49q71 0 120 -49t49 -120z" />
    <glyph glyph-name="Amacron" unicode="&#x100;" horiz-adv-x="1233" 
d="M1220 0h-431l-31 196h-281l-34 -196h-431l371 1544h510zM709 527l-27 180q-1 1 -4 27q-2 22 -21 174q-2 17 -5 46.5t-8 74.5l-13 146q-2 -21 -5.5 -47t-7.5 -57q-7 -62 -10 -86t-4 -29l-29 -187l-42 -242h176zM270 1678v224h726v-224h-726z" />
    <glyph glyph-name="amacron" unicode="&#x101;" horiz-adv-x="1150" 
d="M1058 0h-402q5 54 8 103t6 79q-104 -204 -279 -204q-152 0 -241 152q-88 151 -88 418q0 258 91 406q91 150 248 150q161 0 260 -194q-2 20 -3 35t-2 25l-4 63l-3 48h409v-1081zM652 554q0 60 -4.5 102t-14.5 68.5t-26 38t-39 11.5q-102 0 -102 -271q0 -194 91 -194
q95 0 95 245zM255 1266v224h726v-224h-726z" />
    <glyph glyph-name="Abreve" unicode="&#x102;" horiz-adv-x="1233" 
d="M1220 0h-431l-31 196h-281l-34 -196h-431l371 1544h510zM709 527l-27 180q-1 1 -4 27q-2 22 -21 174q-2 17 -5 46.5t-8 74.5l-13 146q-2 -21 -5.5 -47t-7.5 -57q-7 -62 -10 -86t-4 -29l-29 -187l-42 -242h176zM263 2006h161q29 -68 73 -96q46 -27 137 -27t136 27
q45 25 74 96h161q-13 -161 -112 -254q-98 -90 -261 -90q-160 0 -257 91q-98 92 -112 253z" />
    <glyph glyph-name="abreve" unicode="&#x103;" horiz-adv-x="1150" 
d="M1058 0h-402q5 54 8 103t6 79q-104 -204 -279 -204q-152 0 -241 152q-88 151 -88 418q0 258 91 406q91 150 248 150q161 0 260 -194q-2 20 -3 35t-2 25l-4 63l-3 48h409v-1081zM652 554q0 60 -4.5 102t-14.5 68.5t-26 38t-39 11.5q-102 0 -102 -271q0 -194 91 -194
q95 0 95 245zM247 1572h161q28 -70 73 -97q46 -27 135 -27q81 0 125 27q44 29 71 97h161q-35 -344 -360 -344q-158 0 -255 91q-98 92 -111 253z" />
    <glyph glyph-name="Aogonek" unicode="&#x104;" horiz-adv-x="1233" 
d="M1220 0h-431l-31 196h-281l-34 -196h-431l371 1544h510zM709 527l-27 180q-1 1 -4 27q-2 22 -21 174q-2 17 -5 46.5t-8 74.5l-13 146q-2 -21 -5.5 -47t-7.5 -57q-7 -62 -10 -86t-4 -29l-29 -187l-42 -242h176zM794 0h179q-100 -88 -100 -183q0 -104 118 -104q34 0 99 18
l-23 -206q-59 -25 -127 -25q-132 0 -217 66q-84 66 -84 167q0 139 155 267z" />
    <glyph glyph-name="aogonek" unicode="&#x105;" horiz-adv-x="1150" 
d="M1058 0h-402q5 54 8 103t6 79q-104 -204 -279 -204q-152 0 -241 152q-88 151 -88 418q0 258 91 406q91 150 248 150q161 0 260 -194q-2 20 -3 35t-2 25l-4 63l-3 48h409v-1081zM652 554q0 60 -4.5 102t-14.5 68.5t-26 38t-39 11.5q-102 0 -102 -271q0 -194 91 -194
q95 0 95 245zM657 0h179q-100 -88 -100 -183q0 -104 118 -104q34 0 99 18l-23 -206q-59 -25 -127 -25q-132 0 -217 66q-84 66 -84 167q0 139 155 267z" />
    <glyph glyph-name="Cacute" unicode="&#x106;" horiz-adv-x="1031" 
d="M976 475l-24 -446q-139 -56 -249 -56q-259 0 -436 190q-198 213 -198 603q0 365 186 586q186 220 497 220q101 0 206 -38v-441q-93 93 -191 93q-128 0 -200 -109q-72 -110 -72 -304q0 -94 18 -168t51.5 -125t82.5 -78t112 -27q108 0 217 100zM977 2017l-195 -349h-233
l101 349h327z" />
    <glyph glyph-name="cacute" unicode="&#x107;" horiz-adv-x="701" 
d="M655 353v-369q-36 -4 -63 -5.5t-45 -1.5q-180 0 -301 108q-82 73 -133 200t-51 261q0 238 146 399q145 159 366 159q13 0 33 -1t48 -3v-352q-178 -12 -178 -194q0 -82 44 -144q45 -59 107 -59q6 0 12.5 0.5t14.5 1.5zM321 1228l109 342h324l-203 -342h-230z" />
    <glyph glyph-name="Ccircumflex" unicode="&#x108;" horiz-adv-x="1031" 
d="M976 475l-24 -446q-139 -56 -249 -56q-259 0 -436 190q-198 213 -198 603q0 365 186 586q186 220 497 220q101 0 206 -38v-441q-93 93 -191 93q-128 0 -200 -109q-72 -110 -72 -304q0 -94 18 -168t51.5 -125t82.5 -78t112 -27q108 0 217 100zM1022 1680h-294l-82 156
l-90 -156h-239l178 321h362z" />
    <glyph glyph-name="ccircumflex" unicode="&#x109;" horiz-adv-x="883" 
d="M655 353v-369q-36 -4 -63 -5.5t-45 -1.5q-180 0 -301 108q-82 73 -133 200t-51 261q0 238 146 399q145 159 366 159q13 0 33 -1t48 -3v-352q-178 -12 -178 -194q0 -82 44 -144q45 -59 107 -59q6 0 12.5 0.5t14.5 1.5zM870 1228h-294l-82 156l-90 -156h-239l178 321h362z
" />
    <glyph glyph-name="Cdotaccent" unicode="&#x10a;" horiz-adv-x="1031" 
d="M976 475l-24 -446q-139 -56 -249 -56q-259 0 -436 190q-198 213 -198 603q0 365 186 586q186 220 497 220q101 0 206 -38v-441q-93 93 -191 93q-128 0 -200 -109q-72 -110 -72 -304q0 -94 18 -168t51.5 -125t82.5 -78t112 -27q108 0 217 100zM867 1918q0 -95 -69 -164
q-71 -68 -165 -68q-97 0 -166 69q-68 71 -68 166q0 97 68 165q71 68 165 68q99 0 167 -69q68 -68 68 -167z" />
    <glyph glyph-name="cdotaccent" unicode="&#x10b;" horiz-adv-x="701" 
d="M655 353v-369q-36 -4 -63 -5.5t-45 -1.5q-180 0 -301 108q-82 73 -133 200t-51 261q0 238 146 399q145 159 366 159q13 0 33 -1t48 -3v-352q-178 -12 -178 -194q0 -82 44 -144q45 -59 107 -59q6 0 12.5 0.5t14.5 1.5zM650 1416q0 -95 -69 -164q-71 -68 -165 -68
q-97 0 -166 69q-68 71 -68 166q0 97 68 165q71 68 165 68q99 0 167 -69q68 -68 68 -167z" />
    <glyph glyph-name="Ccaron" unicode="&#x10c;" horiz-adv-x="1031" 
d="M976 475l-24 -446q-139 -56 -249 -56q-259 0 -436 190q-198 213 -198 603q0 365 186 586q186 220 497 220q101 0 206 -38v-441q-93 93 -191 93q-128 0 -200 -109q-72 -110 -72 -304q0 -94 18 -168t51.5 -125t82.5 -78t112 -27q108 0 217 100zM311 1964h322l68 -110
l76 110h265l-214 -296h-326z" />
    <glyph glyph-name="ccaron" unicode="&#x10d;" horiz-adv-x="701" 
d="M655 353v-369q-36 -4 -63 -5.5t-45 -1.5q-180 0 -301 108q-82 73 -133 200t-51 261q0 238 146 399q145 159 366 159q13 0 33 -1t48 -3v-352q-178 -12 -178 -194q0 -82 44 -144q45 -59 107 -59q6 0 12.5 0.5t14.5 1.5zM91 1549h294l81 -156l91 156h239l-178 -321h-362z
" />
    <glyph glyph-name="Dcaron" unicode="&#x10e;" horiz-adv-x="1245" 
d="M108 0v1544h360q309 0 481 -166q226 -217 226 -607q0 -384 -191 -593q-163 -178 -486 -178h-390zM525 373q224 11 224 386q0 185 -57 292q-57 108 -154 108h-13v-786zM80 1964h322l68 -110l76 110h265l-214 -296h-326z" />
    <glyph glyph-name="dcaron" unicode="&#x10f;" horiz-adv-x="1474" 
d="M648 0q1 17 2 39t3 51q2 18 3 55q-58 -94 -113 -131q-54 -36 -133 -36q-163 0 -256 146q-92 146 -92 406q0 273 90 423q90 151 254 151q90 0 145 -40q58 -40 112 -139q-3 52 -3 63l-4 109v592h402v-1689h-410zM477 545q0 -222 99 -222q93 0 93 229q0 219 -90 219
q-102 0 -102 -226zM1445 1191l-196 -223h-135l126 257v59h-126v253h331v-346z" />
    <glyph glyph-name="Dcroat" unicode="&#x110;" horiz-adv-x="1245" 
d="M108 0v672h-93v239h93v633h360q309 0 481 -166q226 -217 226 -607q0 -384 -191 -593q-163 -178 -487 -178h-389zM525 373q223 10 223 386q0 185 -57 292q-56 108 -153 108h-13v-248h123v-239h-123v-299z" />
    <glyph glyph-name="dcroat" unicode="&#x111;" horiz-adv-x="1150" 
d="M477 545q0 -222 99 -222q93 0 93 229q0 219 -90 219q-102 0 -102 -226zM656 1409v280h402v-280h152v-239h-152v-1170h-410q1 17 2 39t3 51q2 18 3 55q-58 -94 -113 -131q-54 -36 -133 -36q-163 0 -256 146q-92 146 -92 406q0 273 90 423q90 151 254 151q90 0 145 -40
q58 -40 112 -139q-3 55 -7 63v182h-176v239h176z" />
    <glyph glyph-name="Emacron" unicode="&#x112;" horiz-adv-x="953" 
d="M108 0v1544h775v-363h-358v-225h321v-349h-321v-236h358v-371h-775zM136 1678v224h726v-224h-726z" />
    <glyph glyph-name="emacron" unicode="&#x113;" horiz-adv-x="1115" 
d="M646 366l392 -8q-42 -189 -163.5 -284.5t-317.5 -95.5q-232 0 -364 144q-131 146 -131 399q0 257 141 419q141 163 364 163q222 0 354 -157q132 -158 132 -419l-2 -71h-588q7 -166 94 -166q68 0 89 76zM655 672q0 30 -7 55t-19.5 43t-29.5 28.5t-37 10.5q-42 0 -68 -38.5
t-26 -98.5h187zM195 1266v224h726v-224h-726z" />
    <glyph glyph-name="Ebreve" unicode="&#x114;" horiz-adv-x="953" 
d="M108 0v1544h775v-363h-358v-225h321v-349h-321v-236h358v-371h-775zM140 2031h161q28 -70 73 -97q46 -27 135 -27q81 0 125 27q44 29 71 97h161q-35 -344 -360 -344q-158 0 -255 91q-98 92 -111 253z" />
    <glyph glyph-name="ebreve" unicode="&#x115;" horiz-adv-x="1115" 
d="M646 366l392 -8q-42 -189 -163.5 -284.5t-317.5 -95.5q-232 0 -364 144q-131 146 -131 399q0 257 141 419q141 163 364 163q222 0 354 -157q132 -158 132 -419l-2 -71h-588q7 -166 94 -166q68 0 89 76zM655 672q0 30 -7 55t-19.5 43t-29.5 28.5t-37 10.5q-42 0 -68 -38.5
t-26 -98.5h187zM216 1572h161q28 -70 73 -97q46 -27 135 -27q81 0 125 27q44 29 71 97h161q-35 -344 -360 -344q-158 0 -255 91q-98 92 -111 253z" />
    <glyph glyph-name="Edotaccent" unicode="&#x116;" horiz-adv-x="953" 
d="M108 0v1544h775v-363h-358v-225h321v-349h-321v-236h358v-371h-775zM705 1877q0 -95 -69 -164q-71 -68 -165 -68q-97 0 -166 69q-68 71 -68 166q0 97 68 165q71 68 165 68q99 0 167 -69q68 -68 68 -167z" />
    <glyph glyph-name="edotaccent" unicode="&#x117;" horiz-adv-x="1115" 
d="M646 366l392 -8q-42 -189 -163.5 -284.5t-317.5 -95.5q-232 0 -364 144q-131 146 -131 399q0 257 141 419q141 163 364 163q222 0 354 -157q132 -158 132 -419l-2 -71h-588q7 -166 94 -166q68 0 89 76zM655 672q0 30 -7 55t-19.5 43t-29.5 28.5t-37 10.5q-42 0 -68 -38.5
t-26 -98.5h187zM790 1416q0 -95 -69 -164q-71 -68 -165 -68q-97 0 -166 69q-68 71 -68 166q0 97 68 165q71 68 165 68q99 0 167 -69q68 -68 68 -167z" />
    <glyph glyph-name="Eogonek" unicode="&#x118;" horiz-adv-x="953" 
d="M108 0v1544h775v-363h-358v-225h321v-349h-321v-236h358v-371h-775zM658 0h179q-100 -88 -100 -183q0 -104 118 -104q34 0 99 18l-23 -206q-59 -25 -127 -25q-132 0 -217 66q-84 66 -84 167q0 139 155 267z" />
    <glyph glyph-name="eogonek" unicode="&#x119;" horiz-adv-x="1115" 
d="M646 366l392 -8q-42 -189 -163.5 -284.5t-317.5 -95.5q-232 0 -364 144q-131 146 -131 399q0 257 141 419q141 163 364 163q222 0 354 -157q132 -158 132 -419l-2 -71h-588q7 -166 94 -166q68 0 89 76zM655 672q0 30 -7 55t-19.5 43t-29.5 28.5t-37 10.5q-42 0 -68 -38.5
t-26 -98.5h187zM545 0h179q-100 -88 -100 -183q0 -104 118 -104q34 0 99 18l-23 -206q-59 -25 -127 -25q-132 0 -217 66q-84 66 -84 167q0 139 155 267z" />
    <glyph glyph-name="Ecaron" unicode="&#x11a;" horiz-adv-x="953" 
d="M108 0v1544h775v-363h-358v-225h321v-349h-321v-236h358v-371h-775zM119 1964h322l68 -110l76 110h265l-214 -296h-326z" />
    <glyph glyph-name="ecaron" unicode="&#x11b;" horiz-adv-x="1115" 
d="M646 366l392 -8q-42 -189 -163.5 -284.5t-317.5 -95.5q-232 0 -364 144q-131 146 -131 399q0 257 141 419q141 163 364 163q222 0 354 -157q132 -158 132 -419l-2 -71h-588q7 -166 94 -166q68 0 89 76zM655 672q0 30 -7 55t-19.5 43t-29.5 28.5t-37 10.5q-42 0 -68 -38.5
t-26 -98.5h187zM220 1549h294l81 -156l91 156h239l-178 -321h-362z" />
    <glyph glyph-name="Gcircumflex" unicode="&#x11c;" horiz-adv-x="1297" 
d="M645 893h582v-64q0 -446 -133 -642q-145 -214 -429 -214q-279 0 -438 210q-158 212 -158 582q0 375 159 591t435 216q366 0 531 -382l-404 -148q-9 73 -41.5 115.5t-81.5 42.5q-172 0 -172 -473q0 -201 38 -292t121 -91q33 0 60 16t45.5 45t29 70.5t10.5 92.5h-154v325z
M1015 1680h-294l-82 156l-90 -156h-239l178 321h362z" />
    <glyph glyph-name="gcircumflex" unicode="&#x11d;" horiz-adv-x="1141" 
d="M1049 1081v-1112q0 -127 -35 -220q-35 -86 -114 -147q-133 -103 -338 -103q-221 0 -339 95t-146 296h410q4 -88 84 -88q51 0 72 35.5t21 117.5v171q-107 -140 -252 -140q-157 0 -254 153q-96 153 -96 402q0 248 96 406q97 157 251 157q71 0 124 -36q55 -37 119 -129
l-8 142h405zM660 544q0 234 -86 234q-97 0 -97 -228q0 -235 94 -235q89 0 89 229zM932 1228h-294l-82 156l-90 -156h-239l178 321h362z" />
    <glyph glyph-name="Gbreve" unicode="&#x11e;" horiz-adv-x="1297" 
d="M645 893h582v-64q0 -446 -133 -642q-145 -214 -429 -214q-279 0 -438 210q-158 212 -158 582q0 375 159 591t435 216q366 0 531 -382l-404 -148q-9 73 -41.5 115.5t-81.5 42.5q-172 0 -172 -473q0 -201 38 -292t121 -91q33 0 60 16t45.5 45t29 70.5t10.5 92.5h-154v325z
M285 2006h161q29 -68 73 -96q46 -27 137 -27t136 27q45 25 74 96h161q-13 -161 -112 -254q-98 -90 -261 -90q-160 0 -257 91q-98 92 -112 253z" />
    <glyph glyph-name="gbreve" unicode="&#x11f;" horiz-adv-x="1141" 
d="M1049 1081v-1112q0 -127 -35 -220q-35 -86 -114 -147q-133 -103 -338 -103q-221 0 -339 95t-146 296h410q4 -88 84 -88q51 0 72 35.5t21 117.5v171q-107 -140 -252 -140q-157 0 -254 153q-96 153 -96 402q0 248 96 406q97 157 251 157q71 0 124 -36q55 -37 119 -129
l-8 142h405zM660 544q0 234 -86 234q-97 0 -97 -228q0 -235 94 -235q89 0 89 229zM216 1572h161q28 -70 73 -97q46 -27 135 -27q81 0 125 27q44 29 71 97h161q-35 -344 -360 -344q-158 0 -255 91q-98 92 -111 253z" />
    <glyph glyph-name="Gdotaccent" unicode="&#x120;" horiz-adv-x="1297" 
d="M645 893h582v-64q0 -446 -133 -642q-145 -214 -429 -214q-279 0 -438 210q-158 212 -158 582q0 375 159 591t435 216q366 0 531 -382l-404 -148q-9 73 -41.5 115.5t-81.5 42.5q-172 0 -172 -473q0 -201 38 -292t121 -91q33 0 60 16t45.5 45t29 70.5t10.5 92.5h-154v325z
M887 1917q0 -95 -69 -164q-71 -68 -165 -68q-97 0 -166 69q-68 71 -68 166q0 97 68 165q71 68 165 68q99 0 167 -69q68 -68 68 -167z" />
    <glyph glyph-name="gdotaccent" unicode="&#x121;" horiz-adv-x="1141" 
d="M1049 1081v-1112q0 -127 -35 -220q-35 -86 -114 -147q-133 -103 -338 -103q-221 0 -339 95t-146 296h410q4 -88 84 -88q51 0 72 35.5t21 117.5v171q-107 -140 -252 -140q-157 0 -254 153q-96 153 -96 402q0 248 96 406q97 157 251 157q71 0 124 -36q55 -37 119 -129
l-8 142h405zM660 544q0 234 -86 234q-97 0 -97 -228q0 -235 94 -235q89 0 89 229zM817 1416q0 -95 -69 -164q-71 -68 -165 -68q-97 0 -166 69q-68 71 -68 166q0 97 68 165q71 68 165 68q99 0 167 -69q68 -68 68 -167z" />
    <glyph glyph-name="Gcedilla" unicode="&#x122;" horiz-adv-x="1297" 
d="M645 893h582v-64q0 -446 -133 -642q-145 -214 -429 -214q-279 0 -438 210q-158 212 -158 582q0 375 159 591t435 216q366 0 531 -382l-404 -148q-9 73 -41.5 115.5t-81.5 42.5q-172 0 -172 -473q0 -201 38 -292t121 -91q33 0 60 16t45.5 45t29 70.5t10.5 92.5h-154v325z
M850 -439l-196 -223h-135l126 257v59h-126v253h331v-346z" />
    <glyph glyph-name="gcedilla" unicode="&#x123;" horiz-adv-x="1141" 
d="M1049 1081v-1112q0 -127 -35 -220q-35 -86 -114 -147q-133 -103 -338 -103q-221 0 -339 95t-146 296h410q4 -88 84 -88q51 0 72 35.5t21 117.5v171q-107 -140 -252 -140q-157 0 -254 153q-96 153 -96 402q0 248 96 406q97 157 251 157q71 0 124 -36q55 -37 119 -129
l-8 142h405zM660 544q0 234 -86 234q-97 0 -97 -228q0 -235 94 -235q89 0 89 229zM452 1576l196 223h135l-126 -257v-59h126v-253h-331v346z" />
    <glyph glyph-name="Hcircumflex" unicode="&#x124;" horiz-adv-x="1249" 
d="M1141 0h-417v621h-199v-621h-417v1544h417v-546h199v546h417v-1544zM981 1673h-294l-82 156l-90 -156h-239l178 321h362z" />
    <glyph glyph-name="hcircumflex" unicode="&#x125;" horiz-adv-x="1136" 
d="M1044 0h-401v572q0 74 -14.5 103t-50.5 29q-84 0 -84 -159v-545h-401v1689h401v-604q0 -49 -0.5 -82t-1.5 -50t-3 -36t-4 -42q97 229 284 229q130 0 202 -97q73 -97 73 -270v-737zM634 1812h-294l-82 156l-90 -156h-239l178 321h362z" />
    <glyph glyph-name="Hbar" unicode="&#x126;" horiz-adv-x="1738" 
d="M1399 -6h-417v621h-199v-621h-417v1544h417v-546h199v546h417v-1544zM-6 1411h1737v-256h-1737v256z" />
    <glyph glyph-name="hbar" unicode="&#x127;" horiz-adv-x="1272" 
d="M1134 0h-401v572q0 74 -14.5 103t-50.5 29q-84 0 -84 -159v-545h-401v1689h401v-604q0 -49 -0.5 -82t-1.5 -50t-3 -36t-4 -42q97 229 284 229q130 0 202 -97q73 -97 73 -270v-737zM747 1214h-753v309h753v-309z" />
    <glyph glyph-name="Itilde" unicode="&#x128;" horiz-adv-x="778" 
d="M571 1993h207l1 -33q0 -122 -68 -199t-176 -77q-63 0 -174 47q-61 31 -98 31q-57 0 -61 -82h-211q0 151 61 228t173 77q62 0 146 -32l69 -29q31 -16 66 -16q59 0 65 85zM601 7h-417v1544h417v-1544z" />
    <glyph glyph-name="itilde" unicode="&#x129;" horiz-adv-x="785" 
d="M578 1541h207l1 -33q0 -122 -68 -199t-176 -77q-63 0 -174 47q-61 31 -98 31q-57 0 -61 -82h-211q0 151 61 228t173 77q62 0 146 -32l69 -29q31 -16 66 -16q59 0 65 85zM598 0h-401v1081h401v-1081z" />
    <glyph glyph-name="Imacron" unicode="&#x12a;" horiz-adv-x="633" 
d="M525 0h-417v1544h417v-1544zM0 1678v224h633v-224h-633z" />
    <glyph glyph-name="imacron" unicode="&#x12b;" horiz-adv-x="587" 
d="M494 0h-401v1081h401v-1081zM0 1266v224h587v-224h-587z" />
    <glyph glyph-name="Ibreve" unicode="&#x12c;" horiz-adv-x="730" 
d="M1 2031h161q28 -70 73 -97q46 -27 135 -27q81 0 125 27q44 29 71 97h161q-35 -344 -360 -344q-158 0 -255 91q-98 92 -111 253zM601 0h-417v1544h417v-1544z" />
    <glyph glyph-name="ibreve" unicode="&#x12d;" horiz-adv-x="723" 
d="M-6 1572h161q28 -70 73 -97q46 -27 135 -27q81 0 125 27q44 29 71 97h161q-35 -344 -360 -344q-158 0 -255 91q-98 92 -111 253zM584 0h-401v1081h401v-1081z" />
    <glyph glyph-name="Iogonek" unicode="&#x12e;" horiz-adv-x="633" 
d="M525 0h-417v1544h417v-1544zM347 0h179q-100 -88 -100 -183q0 -104 118 -104q34 0 99 18l-23 -206q-59 -25 -127 -25q-132 0 -217 66q-84 66 -84 167q0 139 155 267z" />
    <glyph glyph-name="iogonek" unicode="&#x12f;" horiz-adv-x="587" 
d="M494 0h-402v1081h402v-1081zM528 1416q0 -95 -69 -164q-71 -68 -165 -68q-97 0 -166 69q-68 71 -68 166q0 97 68 165q71 68 165 68q99 0 167 -69q68 -68 68 -167zM316 0h179q-100 -88 -100 -183q0 -104 118 -104q34 0 99 18l-23 -206q-59 -25 -127 -25q-132 0 -217 66
q-84 66 -84 167q0 139 155 267z" />
    <glyph glyph-name="Idotaccent" unicode="&#x130;" horiz-adv-x="633" 
d="M525 0h-417v1544h417v-1544zM553 1877q0 -95 -69 -164q-71 -68 -165 -68q-97 0 -166 69q-68 71 -68 166q0 97 68 165q71 68 165 68q99 0 167 -69q68 -68 68 -167z" />
    <glyph glyph-name="dotlessi" unicode="&#x131;" horiz-adv-x="587" 
d="M494 0h-401v1081h401v-1081z" />
    <glyph glyph-name="IJ" unicode="&#x132;" horiz-adv-x="633" 
d="M525 0h-417v1544h417v-1544zM750 23v432q71 -92 167 -92q128 0 128 192v989h417v-1072q0 -137 -24 -219q-22 -81 -81 -149q-114 -131 -335 -131q-117 0 -272 50z" />
    <glyph glyph-name="ij" unicode="&#x133;" horiz-adv-x="1307" 
d="M494 0h-402v1081h402v-1081zM528 1416q0 -95 -69 -164q-71 -68 -165 -68q-97 0 -166 69q-68 71 -68 166q0 97 68 165q71 68 165 68q99 0 167 -69q68 -68 68 -167zM1161 -473h-399v1554h399v-1554zM1194 1416q0 -95 -69 -164q-71 -68 -165 -68q-97 0 -166 69
q-68 71 -68 166q0 97 68 165q71 68 165 68q99 0 167 -69q68 -68 68 -167z" />
    <glyph glyph-name="Jcircumflex" unicode="&#x134;" horiz-adv-x="855" 
d="M857 1680h-294l-82 156l-90 -156h-239l178 321h362zM0 23v432q71 -92 167 -92q128 0 128 192v989h417v-1072q0 -137 -24 -219q-22 -81 -81 -149q-114 -131 -335 -131q-117 0 -272 50z" />
    <glyph glyph-name="jcircumflex" unicode="&#x135;" horiz-adv-x="695" 
d="M697 1228h-294l-82 156l-90 -156h-239l178 321h362zM522 -473h-399v1554h399v-1554z" />
    <glyph glyph-name="Kcedilla" unicode="&#x136;" horiz-adv-x="1253" 
d="M1241 0h-450l-277 712l11 -712h-417v1544h417l-11 -662l246 662h440l-333 -745zM805 -439l-196 -223h-135l126 257v59h-126v253h331v-346z" />
    <glyph glyph-name="kcedilla" unicode="&#x137;" horiz-adv-x="1146" 
d="M685 0l-155 420q-11 28 -36 123v-543h-401v1689h401v-1095q13 42 28.5 83.5t32.5 84.5l130 319h434l-266 -496l293 -585h-461zM744 -439l-196 -223h-135l126 257v59h-126v253h331v-346z" />
    <glyph glyph-name="kgreenlandic" unicode="&#x138;" horiz-adv-x="1146" 
d="M685 0l-155 420q-11 28 -36 123v-543h-401v1081h401v-487q13 42 28.5 83.5t32.5 84.5l130 319h434l-266 -496l293 -585h-461z" />
    <glyph glyph-name="Lacute" unicode="&#x139;" horiz-adv-x="854" 
d="M838 0h-730v1544h417v-1173h313v-371zM688 2017l-195 -349h-233l101 349h327z" />
    <glyph glyph-name="lacute" unicode="&#x13a;" horiz-adv-x="587" 
d="M494 0h-401v1689h401v-1689zM542 2139l-195 -349h-233l101 349h327z" />
    <glyph glyph-name="Lcedilla" unicode="&#x13b;" horiz-adv-x="854" 
d="M838 0h-730v1544h417v-1173h313v-371zM623 -439l-196 -223h-135l126 257v59h-126v253h331v-346z" />
    <glyph glyph-name="lcedilla" unicode="&#x13c;" horiz-adv-x="587" 
d="M494 0h-401v1689h401v-1689zM489 -439l-196 -223h-135l126 257v59h-126v253h331v-346z" />
    <glyph glyph-name="Lcaron" unicode="&#x13d;" horiz-adv-x="1031" 
d="M838 0h-730v1544h417v-1173h313v-371zM1001 1191l-196 -223h-135l126 257v59h-126v253h331v-346z" />
    <glyph glyph-name="lcaron" unicode="&#x13e;" horiz-adv-x="939" 
d="M494 0h-401v1689h401v-1689zM922 1191l-196 -223h-135l126 257v59h-126v253h331v-346z" />
    <glyph glyph-name="Ldotaccent" unicode="&#x13f;" horiz-adv-x="1286" 
d="M838 0h-730v1544h417v-1173h313v-371zM1206 1416q0 -95 -69 -164q-71 -68 -165 -68q-97 0 -166 69q-68 71 -68 166q0 97 68 165q71 68 165 68q99 0 167 -69q68 -68 68 -167z" />
    <glyph glyph-name="ldotaccent" unicode="&#x140;" horiz-adv-x="1272" 
d="M494 0h-401v1689h401v-1689zM1164 1416q0 -95 -69 -164q-71 -68 -165 -68q-97 0 -166 69q-68 71 -68 166q0 97 68 165q71 68 165 68q99 0 167 -69q68 -68 68 -167z" />
    <glyph glyph-name="Lslash" unicode="&#x141;" horiz-adv-x="869" 
d="M124 503l-124 -99v280l124 97v763h416v-540l206 167v-287l-206 -162v-351h314v-371h-730v503z" />
    <glyph glyph-name="lslash" unicode="&#x142;" horiz-adv-x="679" 
d="M139 604l-108 -85v261l108 83v826h402v-640l108 87v-261l-108 -86v-789h-402v604z" />
    <glyph glyph-name="Nacute" unicode="&#x143;" horiz-adv-x="1303" 
d="M108 0v1544h398l209 -542q17 -48 38.5 -110t47.5 -143l43 -136q-23 201 -35 344t-12 240v347h398v-1544h-398l-210 568q-33 91 -59.5 170.5t-46.5 151.5q13 -163 19 -284t6 -212v-394h-398zM924 2017l-195 -349h-233l101 349h327z" />
    <glyph glyph-name="nacute" unicode="&#x144;" horiz-adv-x="1136" 
d="M1044 0h-401v572q0 74 -14.5 103t-50.5 29q-84 0 -84 -159v-545h-401v1081h401q-1 -40 -2 -74t-3 -63l-4 -69q97 229 284 229q130 0 202 -97q73 -97 73 -270v-737zM455 1228l109 342h324l-203 -342h-230z" />
    <glyph glyph-name="Ncedilla" unicode="&#x145;" horiz-adv-x="1303" 
d="M108 0v1544h398l209 -542q17 -48 38.5 -110t47.5 -143l43 -136q-23 201 -35 344t-12 240v347h398v-1544h-398l-210 568q-33 91 -59.5 170.5t-46.5 151.5q13 -163 19 -284t6 -212v-394h-398zM817 -439l-196 -223h-135l126 257v59h-126v253h331v-346z" />
    <glyph glyph-name="ncedilla" unicode="&#x146;" horiz-adv-x="1136" 
d="M1044 0h-401v572q0 74 -14.5 103t-50.5 29q-84 0 -84 -159v-545h-401v1081h401q-1 -40 -2 -74t-3 -63l-4 -69q97 229 284 229q130 0 202 -97q73 -97 73 -270v-737zM733 -439l-196 -223h-135l126 257v59h-126v253h331v-346z" />
    <glyph glyph-name="Ncaron" unicode="&#x147;" horiz-adv-x="1303" 
d="M108 0v1544h398l209 -542q17 -48 38.5 -110t47.5 -143l43 -136q-23 201 -35 344t-12 240v347h398v-1544h-398l-210 568q-33 91 -59.5 170.5t-46.5 151.5q13 -163 19 -284t6 -212v-394h-398zM288 1964h322l68 -110l76 110h265l-214 -296h-326z" />
    <glyph glyph-name="ncaron" unicode="&#x148;" horiz-adv-x="1136" 
d="M1044 0h-401v572q0 74 -14.5 103t-50.5 29q-84 0 -84 -159v-545h-401v1081h401q-1 -40 -2 -74t-3 -63l-4 -69q97 229 284 229q130 0 202 -97q73 -97 73 -270v-737zM227 1549h294l81 -156l91 156h239l-178 -321h-362z" />
    <glyph glyph-name="quoterightn" unicode="&#x149;" horiz-adv-x="1779" 
d="M1662 0h-401v572q0 74 -14.5 103t-50.5 29q-84 0 -84 -159v-545h-401v1081h401q-1 -40 -2 -74t-3 -63l-4 -69q97 229 284 229q130 0 202 -97q73 -97 73 -270v-737zM676 1544l-270 -743h-329l189 743h410z" />
    <glyph glyph-name="Omacron" unicode="&#x14c;" horiz-adv-x="1313" 
d="M1243 767q0 -353 -161 -574q-160 -220 -417 -220q-228 0 -391 169q-205 214 -205 642q0 410 214 627q159 161 377 161q267 0 425 -218t158 -587zM810 764q0 419 -148 419q-74 0 -118 -110q-43 -102 -43 -300q0 -195 40.5 -302.5t112.5 -107.5q74 0 114 106q42 106 42 295
zM289 1678v224h726v-224h-726z" />
    <glyph glyph-name="omacron" unicode="&#x14d;" horiz-adv-x="1129" 
d="M1067 524q0 -250 -138 -398t-370 -148q-228 0 -363 151q-134 152 -134 408t137 411q136 156 361 156q237 0 372 -155t135 -425zM678 537q0 60 -8 108.5t-23 83t-36 53.5t-47 19q-51 0 -82 -72q-31 -63 -31 -189q0 -124 31 -189q31 -72 83 -72q49 0 81 71q32 79 32 187z
M202 1266v224h726v-224h-726z" />
    <glyph glyph-name="Obreve" unicode="&#x14e;" horiz-adv-x="1313" 
d="M1243 767q0 -353 -161 -574q-160 -220 -417 -220q-228 0 -391 169q-205 214 -205 642q0 410 214 627q159 161 377 161q267 0 425 -218t158 -587zM810 764q0 419 -148 419q-74 0 -118 -110q-43 -102 -43 -300q0 -195 40.5 -302.5t112.5 -107.5q74 0 114 106q42 106 42 295
zM278 2031h161q28 -70 73 -97q46 -27 135 -27q81 0 125 27q44 29 71 97h161q-35 -344 -360 -344q-158 0 -255 91q-98 92 -111 253z" />
    <glyph glyph-name="obreve" unicode="&#x14f;" horiz-adv-x="1129" 
d="M1067 524q0 -250 -138 -398t-370 -148q-228 0 -363 151q-134 152 -134 408t137 411q136 156 361 156q237 0 372 -155t135 -425zM678 537q0 60 -8 108.5t-23 83t-36 53.5t-47 19q-51 0 -82 -72q-31 -63 -31 -189q0 -124 31 -189q31 -72 83 -72q49 0 81 71q32 79 32 187z
M216 1572h161q28 -70 73 -97q46 -27 135 -27q81 0 125 27q44 29 71 97h161q-35 -344 -360 -344q-158 0 -255 91q-98 92 -111 253z" />
    <glyph glyph-name="Ohungarumlaut" unicode="&#x150;" horiz-adv-x="1313" 
d="M1243 767q0 -353 -161 -574q-160 -220 -417 -220q-228 0 -391 169q-205 214 -205 642q0 410 214 627q159 161 377 161q267 0 425 -218t158 -587zM810 764q0 419 -148 419q-74 0 -118 -110q-43 -102 -43 -300q0 -195 40.5 -302.5t112.5 -107.5q74 0 114 106q42 106 42 295
zM358 1656l109 342h285l-187 -342h-207zM744 1656l109 342h285l-187 -342h-207z" />
    <glyph glyph-name="ohungarumlaut" unicode="&#x151;" horiz-adv-x="1129" 
d="M1067 524q0 -250 -138 -398t-370 -148q-228 0 -363 151q-134 152 -134 408t137 411q136 156 361 156q237 0 372 -155t135 -425zM678 537q0 60 -8 108.5t-23 83t-36 53.5t-47 19q-51 0 -82 -72q-31 -63 -31 -189q0 -124 31 -189q31 -72 83 -72q49 0 81 71q32 79 32 187z
M266 1228l109 342h285l-187 -342h-207zM652 1228l109 342h285l-187 -342h-207z" />
    <glyph glyph-name="OE" unicode="&#x152;" horiz-adv-x="1640" 
d="M1570 0h-776q-7 0 -13.5 -0.5t-18.5 -1.5q-72 -8 -114.5 -12t-58.5 -4q-184 0 -329 165q-191 218 -191 628q0 431 216 646q142 139 322 139q42 0 141 -9q13 -2 33 -3.5t46 -3.5h740v-363h-349v-225h315v-349h-315v-236h352v-371zM807 778q0 405 -144 405q-78 0 -120 -107
t-42 -318q0 -190 40.5 -293.5t115.5 -103.5q150 0 150 417z" />
    <glyph glyph-name="oe" unicode="&#x153;" horiz-adv-x="1708" 
d="M1247 358l382 -8q-43 -175 -172 -274q-128 -98 -312 -98q-155 0 -297 75q-122 -75 -261 -75q-247 0 -386 151t-139 420q0 258 138 407q138 150 375 150q152 0 293 -78q133 78 283 78q221 0 358 -155t137 -405q0 -15 -0.5 -36.5t-1.5 -49.5h-595q11 -185 106 -185
q66 0 92 83zM681 538q0 129 -31 194q-31 73 -83 73q-51 0 -82 -72q-31 -65 -31 -191q0 -125 31 -191q31 -72 83 -72q49 0 81 72q32 79 32 187zM1252 676q-20 149 -105 149q-82 0 -97 -149h202z" />
    <glyph glyph-name="Racute" unicode="&#x154;" horiz-adv-x="1236" 
d="M1206 0h-451l-206 550q-3 14 -10.5 37t-18.5 55l3 -102v-540h-415v1544h427q282 0 422 -111q178 -142 178 -404q0 -280 -239 -387zM525 829h28q72 0 120 55t48 140q0 173 -181 173h-15v-368zM793 2017l-195 -349h-233l101 349h327z" />
    <glyph glyph-name="racute" unicode="&#x155;" horiz-adv-x="797" 
d="M494 0h-401v1081h401l-21 -211q91 237 301 237v-450q-66 36 -112 36q-81 0 -124.5 -58.5t-43.5 -170.5v-464zM271 1228l109 342h324l-203 -342h-230z" />
    <glyph glyph-name="Rcedilla" unicode="&#x156;" horiz-adv-x="1236" 
d="M1206 0h-451l-206 550q-3 14 -10.5 37t-18.5 55l3 -102v-540h-415v1544h427q282 0 422 -111q178 -142 178 -404q0 -280 -239 -387zM525 829h28q72 0 120 55t48 140q0 173 -181 173h-15v-368zM780 -439l-196 -223h-135l126 257v59h-126v253h331v-346z" />
    <glyph glyph-name="rcedilla" unicode="&#x157;" horiz-adv-x="797" 
d="M494 0h-401v1081h401l-21 -211q91 237 301 237v-450q-66 36 -112 36q-81 0 -124.5 -58.5t-43.5 -170.5v-464zM567 -439l-196 -223h-135l126 257v59h-126v253h331v-346z" />
    <glyph glyph-name="Rcaron" unicode="&#x158;" horiz-adv-x="1236" 
d="M1206 0h-451l-206 550q-3 14 -10.5 37t-18.5 55l3 -102v-540h-415v1544h427q282 0 422 -111q178 -142 178 -404q0 -280 -239 -387zM525 829h28q72 0 120 55t48 140q0 173 -181 173h-15v-368zM137 1964h322l68 -110l76 110h265l-214 -296h-326z" />
    <glyph glyph-name="rcaron" unicode="&#x159;" horiz-adv-x="797" 
d="M494 0h-401v1081h401l-21 -211q91 237 301 237v-450q-66 36 -112 36q-81 0 -124.5 -58.5t-43.5 -170.5v-464zM85 1549h294l81 -156l91 156h239l-178 -321h-362z" />
    <glyph glyph-name="Sacute" unicode="&#x15a;" horiz-adv-x="936" 
d="M75 38v485q123 -168 266 -168q54 0 88 28.5t34 71.5q0 62 -74 121l-68 53q-68 51 -116 101.5t-78 104t-44 110.5t-14 120q0 108 50 226q25 55 58 100.5t76 80.5q118 100 285 100q149 0 300 -79v-472q-51 79 -116 124.5t-128 45.5q-48 0 -79 -28q-32 -27 -32 -65
q0 -62 85 -123l66 -49q132 -95 189 -195q58 -100 58 -234q0 -228 -139 -376t-352 -148q-147 0 -315 65zM793 2017l-195 -349h-233l101 349h327z" />
    <glyph glyph-name="sacute" unicode="&#x15b;" horiz-adv-x="914" 
d="M54 89l146 300q108 -113 201 -113q78 0 78 56q0 48 -105 86q-283 100 -283 317q0 159 126 264q127 105 317 105q156 0 322 -88l-137 -293q-101 95 -165 95q-63 0 -63 -51q0 -55 120 -103q150 -59 204 -125q57 -66 57 -182q0 -167 -121 -273t-311 -106q-91 0 -181 23
q-42 11 -92 33.5t-113 54.5zM329 1228l109 342h324l-203 -342h-230z" />
    <glyph glyph-name="Scircumflex" unicode="&#x15c;" horiz-adv-x="936" 
d="M75 38v485q123 -168 266 -168q54 0 88 28.5t34 71.5q0 62 -74 121l-68 53q-68 51 -116 101.5t-78 104t-44 110.5t-14 120q0 108 50 226q25 55 58 100.5t76 80.5q118 100 285 100q149 0 300 -79v-472q-51 79 -116 124.5t-128 45.5q-48 0 -79 -28q-32 -27 -32 -65
q0 -62 85 -123l66 -49q132 -95 189 -195q58 -100 58 -234q0 -228 -139 -376t-352 -148q-147 0 -315 65zM877 1680h-294l-82 156l-90 -156h-239l178 321h362z" />
    <glyph glyph-name="scircumflex" unicode="&#x15d;" horiz-adv-x="914" 
d="M54 89l146 300q108 -113 201 -113q78 0 78 56q0 48 -105 86q-283 100 -283 317q0 159 126 264q127 105 317 105q156 0 322 -88l-137 -293q-101 95 -165 95q-63 0 -63 -51q0 -55 120 -103q150 -59 204 -125q57 -66 57 -182q0 -167 -121 -273t-311 -106q-91 0 -181 23
q-42 11 -92 33.5t-113 54.5zM863 1235h-294l-82 156l-90 -156h-239l178 321h362z" />
    <glyph glyph-name="Scedilla" unicode="&#x15e;" horiz-adv-x="936" 
d="M75 38v485q123 -168 266 -168q54 0 88 28.5t34 71.5q0 62 -74 121l-68 53q-68 51 -116 101.5t-78 104t-44 110.5t-14 120q0 108 50 226q25 55 58 100.5t76 80.5q118 100 285 100q149 0 300 -79v-472q-51 79 -116 124.5t-128 45.5q-48 0 -79 -28q-32 -27 -32 -65
q0 -62 85 -123l66 -49q132 -95 189 -195q58 -100 58 -234q0 -228 -139 -376t-352 -148q-147 0 -315 65zM582 -245l-325 -308l-167 106l278 340z" />
    <glyph glyph-name="scedilla" unicode="&#x15f;" horiz-adv-x="914" 
d="M54 89l146 300q108 -113 201 -113q78 0 78 56q0 48 -105 86q-283 100 -283 317q0 159 126 264q127 105 317 105q156 0 322 -88l-137 -293q-101 95 -165 95q-63 0 -63 -51q0 -55 120 -103q150 -59 204 -125q57 -66 57 -182q0 -167 -121 -273t-311 -106q-91 0 -181 23
q-42 11 -92 33.5t-113 54.5zM600 -230l-263 -271l-152 110l227 284z" />
    <glyph glyph-name="Scaron" unicode="&#x160;" horiz-adv-x="936" 
d="M141 1987h314l80 -139l87 139h265l-203 -319h-353zM75 38v485q123 -168 266 -168q54 0 88 28.5t34 71.5q0 62 -74 121l-68 53q-68 51 -116 101.5t-78 104t-44 110.5t-14 120q0 108 50 226q25 55 58 100.5t76 80.5q118 100 285 100q149 0 300 -79v-472q-51 79 -116 124.5
t-128 45.5q-48 0 -79 -28q-32 -27 -32 -65q0 -62 85 -123l66 -49q132 -95 189 -195q58 -100 58 -234q0 -228 -139 -376t-352 -148q-147 0 -315 65z" />
    <glyph glyph-name="scaron" unicode="&#x161;" horiz-adv-x="914" 
d="M54 89l146 300q108 -113 201 -113q78 0 78 56q0 48 -105 86q-283 100 -283 317q0 159 126 264q127 105 317 105q156 0 322 -88l-137 -293q-101 95 -165 95q-63 0 -63 -51q0 -55 120 -103q150 -59 204 -125q57 -66 57 -182q0 -167 -121 -273t-311 -106q-91 0 -181 23
q-42 11 -92 33.5t-113 54.5zM152 1549h294l81 -156l91 156h239l-178 -321h-362z" />
    <glyph glyph-name="Tcedilla" unicode="&#x162;" horiz-adv-x="886" 
d="M647 0h-417v1174h-230v370h886v-370h-239v-1174zM646 -435l-196 -223h-135l126 257v59h-126v253h331v-346z" />
    <glyph glyph-name="tcedilla" unicode="&#x163;" horiz-adv-x="697" 
d="M549 0h-402v758h-114v323h114v318h402v-318h133v-323h-133v-758zM541 -439l-196 -223h-135l126 257v59h-126v253h331v-346z" />
    <glyph glyph-name="Tcaron" unicode="&#x164;" horiz-adv-x="886" 
d="M647 0h-417v1174h-230v370h886v-370h-239v-1174zM80 1964h322l68 -110l76 110h265l-214 -296h-326z" />
    <glyph glyph-name="tcaron" unicode="&#x165;" horiz-adv-x="1135" 
d="M549 0h-402v758h-114v323h114v318h402v-318h133v-323h-133v-758zM1111 1191l-196 -223h-135l126 257v59h-126v253h331v-346z" />
    <glyph glyph-name="Tbar" unicode="&#x166;" horiz-adv-x="886" 
d="M647 0h-417v1174h-230v370h886v-370h-239v-1174zM823 395h-753v309h753v-309z" />
    <glyph glyph-name="tbar" unicode="&#x167;" horiz-adv-x="758" 
d="M577 0h-402v758h-114v323h114v318h402v-318h133v-323h-133v-758zM753 306h-753v309h753v-309z" />
    <glyph glyph-name="Utilde" unicode="&#x168;" horiz-adv-x="1263" 
d="M738 1544h417v-1092q0 -137 -43 -222q-42 -89 -140 -161q-132 -96 -321 -96q-214 0 -359 106q-184 135 -184 432v1033h417v-996q0 -101 24.5 -143t82.5 -42q60 0 83 39q23 41 23 145v997zM828 1986h207l1 -33q0 -122 -68 -199t-176 -77q-63 0 -174 47q-61 31 -98 31
q-57 0 -61 -82h-211q0 151 61 228t173 77q62 0 146 -32l69 -29q31 -16 66 -16q59 0 65 85z" />
    <glyph glyph-name="utilde" unicode="&#x169;" horiz-adv-x="1157" 
d="M93 1081h401v-609q0 -87 17 -127q18 -33 68 -33q49 0 66 33q18 33 18 127v609h401v-663q0 -66 -10.5 -119.5t-33 -97t-58 -79.5t-84.5 -66q-132 -78 -299 -78q-169 0 -299 78q-50 30 -85.5 65.5t-58 79.5t-33 97.5t-10.5 119.5v663zM765 1541h207l1 -33q0 -122 -68 -199
t-176 -77q-63 0 -174 47q-61 31 -98 31q-57 0 -61 -82h-211q0 151 61 228t173 77q62 0 146 -32l69 -29q31 -16 66 -16q59 0 65 85z" />
    <glyph glyph-name="Umacron" unicode="&#x16a;" horiz-adv-x="1263" 
d="M738 1544h417v-1092q0 -137 -43 -222q-42 -89 -140 -161q-132 -96 -321 -96q-214 0 -359 106q-184 135 -184 432v1033h417v-996q0 -101 24.5 -143t82.5 -42q60 0 83 39q23 41 23 145v997zM270 1678v224h726v-224h-726z" />
    <glyph glyph-name="umacron" unicode="&#x16b;" horiz-adv-x="1157" 
d="M93 1081h401v-609q0 -87 17 -127q18 -33 68 -33q49 0 66 33q18 33 18 127v609h401v-663q0 -66 -10.5 -119.5t-33 -97t-58 -79.5t-84.5 -66q-132 -78 -299 -78q-169 0 -299 78q-50 30 -85.5 65.5t-58 79.5t-33 97.5t-10.5 119.5v663zM216 1266v224h726v-224h-726z" />
    <glyph glyph-name="Ubreve" unicode="&#x16c;" horiz-adv-x="1263" 
d="M738 1544h417v-1092q0 -137 -43 -222q-42 -89 -140 -161q-132 -96 -321 -96q-214 0 -359 106q-184 135 -184 432v1033h417v-996q0 -101 24.5 -143t82.5 -42q60 0 83 39q23 41 23 145v997zM285 2024h161q28 -70 73 -97q46 -27 135 -27q81 0 125 27q44 29 71 97h161
q-35 -344 -360 -344q-158 0 -255 91q-98 92 -111 253z" />
    <glyph glyph-name="ubreve" unicode="&#x16d;" horiz-adv-x="1157" 
d="M93 1081h401v-609q0 -87 17 -127q18 -33 68 -33q49 0 66 33q18 33 18 127v609h401v-663q0 -66 -10.5 -119.5t-33 -97t-58 -79.5t-84.5 -66q-132 -78 -299 -78q-169 0 -299 78q-50 30 -85.5 65.5t-58 79.5t-33 97.5t-10.5 119.5v663zM216 1572h161q28 -70 73 -97
q46 -27 135 -27q81 0 125 27q44 29 71 97h161q-35 -344 -360 -344q-158 0 -255 91q-98 92 -111 253z" />
    <glyph glyph-name="Uring" unicode="&#x16e;" horiz-adv-x="1263" 
d="M738 1544h417v-1092q0 -137 -43 -222q-42 -89 -140 -161q-132 -96 -321 -96q-214 0 -359 106q-184 135 -184 432v1033h417v-996q0 -101 24.5 -143t82.5 -42q60 0 83 39q23 41 23 145v997zM833 1852q0 -82 -59 -141t-140 -59q-84 0 -143 59q-59 62 -59 144q0 83 58 141
q59 59 142 59t142 -59t59 -144zM719 1852q0 37 -25 62t-61 25q-35 0 -60 -24.5t-25 -60.5q0 -18 7 -33.5t18.5 -27t27 -18.5t33.5 -7q36 0 60.5 25.5t24.5 58.5z" />
    <glyph glyph-name="uring" unicode="&#x16f;" horiz-adv-x="1157" 
d="M93 1081h401v-609q0 -87 17 -127q18 -33 68 -33q49 0 66 33q18 33 18 127v609h401v-663q0 -66 -10.5 -119.5t-33 -97t-58 -79.5t-84.5 -66q-132 -78 -299 -78q-169 0 -299 78q-50 30 -85.5 65.5t-58 79.5t-33 97.5t-10.5 119.5v663zM803 1431q0 -91 -66 -155
q-64 -64 -156 -64q-90 0 -158 65q-65 65 -65 157t65 157q64 66 157 66t158 -66q65 -68 65 -160zM673 1433q0 42 -27 69t-67 27q-20 0 -37 -7.5t-29.5 -20.5t-20 -30.5t-7.5 -36.5q0 -20 7.5 -37t20 -30t29.5 -20.5t37 -7.5q19 0 36.5 7.5t30 20.5t20 30t7.5 36z" />
    <glyph glyph-name="Uhungarumlaut" unicode="&#x170;" horiz-adv-x="1263" 
d="M738 1544h417v-1092q0 -137 -43 -222q-42 -89 -140 -161q-132 -96 -321 -96q-214 0 -359 106q-184 135 -184 432v1033h417v-996q0 -101 24.5 -143t82.5 -42q60 0 83 39q23 41 23 145v997zM339 1667l109 342h285l-187 -342h-207zM725 1667l109 342h285l-187 -342h-207z
" />
    <glyph glyph-name="uhungarumlaut" unicode="&#x171;" horiz-adv-x="1157" 
d="M93 1081h401v-609q0 -87 17 -127q18 -33 68 -33q49 0 66 33q18 33 18 127v609h401v-663q0 -66 -10.5 -119.5t-33 -97t-58 -79.5t-84.5 -66q-132 -78 -299 -78q-169 0 -299 78q-50 30 -85.5 65.5t-58 79.5t-33 97.5t-10.5 119.5v663zM281 1228l109 342h285l-187 -342h-207
zM667 1228l109 342h285l-187 -342h-207z" />
    <glyph glyph-name="Uogonek" unicode="&#x172;" horiz-adv-x="1263" 
d="M738 1544h417v-1092q0 -137 -43 -222q-42 -89 -140 -161q-132 -96 -321 -96q-214 0 -359 106q-184 135 -184 432v1033h417v-996q0 -101 24.5 -143t82.5 -42q60 0 83 39q23 41 23 145v997zM652 0h179q-100 -88 -100 -183q0 -104 118 -104q34 0 99 18l-23 -206
q-59 -25 -127 -25q-132 0 -217 66q-84 66 -84 167q0 139 155 267z" />
    <glyph glyph-name="uogonek" unicode="&#x173;" horiz-adv-x="1157" 
d="M93 1081h401v-609q0 -87 17 -127q18 -33 68 -33q49 0 66 33q18 33 18 127v609h401v-663q0 -66 -10.5 -119.5t-33 -97t-58 -79.5t-84.5 -66q-132 -78 -299 -78q-169 0 -299 78q-50 30 -85.5 65.5t-58 79.5t-33 97.5t-10.5 119.5v663zM564 0h179q-100 -88 -100 -183
q0 -104 118 -104q34 0 99 18l-23 -206q-59 -25 -127 -25q-132 0 -217 66q-84 66 -84 167q0 139 155 267z" />
    <glyph glyph-name="Wcircumflex" unicode="&#x174;" horiz-adv-x="1745" 
d="M1432 0h-402l-96 541q-28 157 -42 272q-7 57 -12 95t-7 58q-5 -41 -15 -153q-5 -57 -12 -120t-17 -133l-79 -560h-406l-344 1544h412l68 -425q39 -254 54 -399l14 -141l13 121q21 212 54 403l78 441h359l70 -371q50 -259 87 -613q11 159 24 282t29 223l76 479h407z
M1231 1680h-294l-82 156l-90 -156h-239l178 321h362z" />
    <glyph glyph-name="wcircumflex" unicode="&#x175;" horiz-adv-x="1580" 
d="M1265 0h-397l-82 648l-124 -648h-393l-269 1081h394l61 -347q11 -66 21.5 -141t19.5 -163q8 91 21.5 174.5t30.5 161.5l71 315h342l58 -348q11 -67 20 -142.5t17 -160.5q16 115 32 209.5t33 173.5l58 268h401zM1140 1228h-294l-82 156l-90 -156h-239l178 321h362z" />
    <glyph glyph-name="Ycircumflex" unicode="&#x176;" horiz-adv-x="1159" 
d="M800 0h-417v654l-383 890h435l75 -229q22 -67 39.5 -129t31.5 -119q23 85 40 146.5t30 99.5l76 231h432l-359 -890v-654zM946 1680h-294l-82 156l-90 -156h-239l178 321h362z" />
    <glyph glyph-name="ycircumflex" unicode="&#x177;" horiz-adv-x="1056" 
d="M559 -453h-413l175 498l-321 1036h403l77 -310q16 -64 28.5 -139.5t21.5 -163.5l14 99q28 189 51 280l60 234h401zM891 1228h-294l-82 156l-90 -156h-239l178 321h362z" />
    <glyph glyph-name="Ydieresis" unicode="&#x178;" horiz-adv-x="1159" 
d="M800 0h-417v654l-383 890h435l75 -229q22 -67 39.5 -129t31.5 -119q23 85 40 146.5t30 99.5l76 231h432l-359 -890v-654zM977 1833q0 -67 -49 -116t-118 -49q-71 0 -120 49t-49 119q0 69 49 118t119 49q69 0 119 -50q49 -49 49 -120zM516 1835q0 -68 -50 -118
q-49 -49 -117 -49q-69 0 -118 49t-49 118q0 70 49 119t118 49q70 0 118 -49q49 -49 49 -119z" />
    <glyph glyph-name="Zacute" unicode="&#x179;" horiz-adv-x="1192" 
d="M1102 0h-1063v33l362 827q40 75 64.5 123t35.5 68q19 39 78 130h-448v363h1023v-43l-380 -841q-37 -81 -74 -157t-74 -151q66 5 103.5 7.5t49.5 2.5l323 9v-371zM901 2017l-195 -349h-233l101 349h327z" />
    <glyph glyph-name="zacute" unicode="&#x17a;" horiz-adv-x="1008" 
d="M905 0h-866l262 561q19 42 44.5 90.5t57.5 106.5h-305v323h871l-255 -551q-45 -97 -106 -203h297v-327zM441 1228l109 342h324l-203 -342h-230z" />
    <glyph glyph-name="Zdotaccent" unicode="&#x17b;" horiz-adv-x="1192" 
d="M1102 0h-1063v33l362 827q40 75 64.5 123t35.5 68q19 39 78 130h-448v363h1023v-43l-380 -841q-37 -81 -74 -157t-74 -151q66 5 103.5 7.5t49.5 2.5l323 9v-371zM886 1877q0 -95 -69 -164q-71 -68 -165 -68q-97 0 -166 69q-68 71 -68 166q0 97 68 165q71 68 165 68
q99 0 167 -69q68 -68 68 -167z" />
    <glyph glyph-name="zdotaccent" unicode="&#x17c;" horiz-adv-x="1008" 
d="M905 0h-866l262 561q19 42 44.5 90.5t57.5 106.5h-305v323h871l-255 -551q-45 -97 -106 -203h297v-327zM763 1416q0 -95 -69 -164q-71 -68 -165 -68q-97 0 -166 69q-68 71 -68 166q0 97 68 165q71 68 165 68q99 0 167 -69q68 -68 68 -167z" />
    <glyph glyph-name="Zcaron" unicode="&#x17d;" horiz-adv-x="1192" 
d="M1102 0h-1063v33l362 827q40 75 64.5 123t35.5 68q19 39 78 130h-448v363h1023v-43l-380 -841q-37 -81 -74 -157t-74 -151q66 5 103.5 7.5t49.5 2.5l323 9v-371zM279 1964h322l68 -110l76 110h265l-214 -296h-326z" />
    <glyph glyph-name="zcaron" unicode="&#x17e;" horiz-adv-x="1008" 
d="M905 0h-866l262 561q19 42 44.5 90.5t57.5 106.5h-305v323h871l-255 -551q-45 -97 -106 -203h297v-327zM179 1549h294l81 -156l91 156h239l-178 -321h-362z" />
    <glyph glyph-name="florin" unicode="&#x192;" horiz-adv-x="1234" 
d="M945 761h-124l-113 -666q-36 -206 -135.5 -304t-275.5 -98q-73 0 -175 31l50 328q31 -2 49 -3t24 -1q53 0 77 18.5t32 65.5l104 629h-127l53 325h128l38 224q36 209 122 298t255 89q33 0 68 -4t72 -12l44 -9l-44 -320q-15 2 -25 3.5t-16 2.5t-10.5 1.5t-8.5 0.5h-15
q-70 0 -83 -79l-34 -195h124z" />
    <glyph glyph-name="Scommaaccent" unicode="&#x218;" horiz-adv-x="936" 
d="M75 38v485q123 -168 266 -168q54 0 88 28.5t34 71.5q0 62 -74 121l-68 53q-68 51 -116 101.5t-78 104t-44 110.5t-14 120q0 108 50 226q25 55 58 100.5t76 80.5q118 100 285 100q149 0 300 -79v-472q-51 79 -116 124.5t-128 45.5q-48 0 -79 -28q-32 -27 -32 -65
q0 -62 85 -123l66 -49q132 -95 189 -195q58 -100 58 -234q0 -228 -139 -376t-352 -148q-147 0 -315 65zM582 -245l-325 -308l-167 106l278 340z" />
    <glyph glyph-name="scommaaccent" unicode="&#x219;" horiz-adv-x="914" 
d="M54 89l146 300q108 -113 201 -113q78 0 78 56q0 48 -105 86q-283 100 -283 317q0 159 126 264q127 105 317 105q156 0 322 -88l-137 -293q-101 95 -165 95q-63 0 -63 -51q0 -55 120 -103q150 -59 204 -125q57 -66 57 -182q0 -167 -121 -273t-311 -106q-91 0 -181 23
q-42 11 -92 33.5t-113 54.5zM599 -230l-263 -271l-152 110l227 284z" />
    <glyph glyph-name="quoteleft" unicode="&#x2bb;" horiz-adv-x="768" 
d="M93 801l269 743h330l-190 -743h-409z" />
    <glyph glyph-name="quoteleft" unicode="&#x2018;" horiz-adv-x="768" 
d="M93 801l269 743h330l-190 -743h-409z" />
    <glyph glyph-name="quoteright" unicode="&#x2bc;" horiz-adv-x="753" 
d="M676 1544l-270 -743h-329l189 743h410z" />
    <glyph glyph-name="quoteright" unicode="&#x2019;" horiz-adv-x="753" 
d="M676 1544l-270 -743h-329l189 743h410z" />
    <glyph glyph-name="circumflex" unicode="&#x2c6;" horiz-adv-x="1158" 
d="M932 1228h-294l-82 156l-90 -156h-239l178 321h362z" />
    <glyph glyph-name="caron" unicode="&#x2c7;" horiz-adv-x="1158" 
d="M227 1549h294l81 -156l91 156h239l-178 -321h-362z" />
    <glyph glyph-name="breve" unicode="&#x2d8;" horiz-adv-x="1158" 
d="M216 1572h161q28 -70 73 -97q46 -27 135 -27q81 0 125 27q44 29 71 97h161q-35 -344 -360 -344q-158 0 -255 91q-98 92 -111 253z" />
    <glyph glyph-name="dotaccent" unicode="&#x2d9;" horiz-adv-x="638" 
d="M553 1416q0 -95 -69 -164q-71 -68 -165 -68q-97 0 -166 69q-68 71 -68 166q0 97 68 165q71 68 165 68q99 0 167 -69q68 -68 68 -167z" />
    <glyph glyph-name="ring" unicode="&#x2da;" horiz-adv-x="1158" 
d="M856 1431q0 -91 -66 -155q-64 -64 -156 -64q-90 0 -158 65q-65 65 -65 157t65 157q64 66 157 66t158 -66q65 -68 65 -160zM726 1433q0 42 -27 69t-67 27q-20 0 -37 -7.5t-29.5 -20.5t-20 -30.5t-7.5 -36.5q0 -20 7.5 -37t20 -30t29.5 -20.5t37 -7.5q19 0 36.5 7.5
t30 20.5t20 30t7.5 36z" />
    <glyph glyph-name="ogonek" unicode="&#x2db;" horiz-adv-x="1251" 
d="M555 0h179q-100 -88 -100 -183q0 -104 118 -104q34 0 99 18l-23 -206q-59 -25 -127 -25q-132 0 -217 66q-84 66 -84 167q0 139 155 267z" />
    <glyph glyph-name="tilde" unicode="&#x2dc;" horiz-adv-x="1158" 
d="M765 1541h207l1 -33q0 -122 -68 -199t-176 -77q-63 0 -174 47q-61 31 -98 31q-57 0 -61 -82h-211q0 151 61 228t173 77q62 0 146 -32l69 -29q31 -16 66 -16q59 0 65 85z" />
    <glyph glyph-name="hungarumlaut" unicode="&#x2dd;" horiz-adv-x="1158" 
d="M278 1228l109 342h285l-187 -342h-207zM664 1228l109 342h285l-187 -342h-207z" />
    <glyph glyph-name="gravecmb" unicode="&#x300;" horiz-adv-x="0" 
d="M-454 1228h-230l-203 342h324z" />
    <glyph glyph-name="acutecmb" unicode="&#x301;" horiz-adv-x="0" 
d="M-702 1228l109 342h324l-203 -342h-230z" />
    <glyph glyph-name="circumflexcmb" unicode="&#x302;" horiz-adv-x="0" 
d="M-225 1228h-294l-82 156l-90 -156h-239l178 321h362z" />
    <glyph glyph-name="tildecmb" unicode="&#x303;" horiz-adv-x="0" 
d="M-392 1541h207l1 -33q0 -122 -68 -199t-176 -77q-63 0 -174 47q-61 31 -98 31q-57 0 -61 -82h-211q0 151 61 228t173 77q62 0 146 -32l69 -29q31 -16 66 -16q59 0 65 85z" />
    <glyph glyph-name="macroncmb" unicode="&#x304;" horiz-adv-x="0" 
d="M-941 1266v224h726v-224h-726z" />
    <glyph glyph-name="brevecmb" unicode="&#x306;" horiz-adv-x="0" 
d="M-941 1572h161q28 -70 73 -97q46 -27 135 -27q81 0 125 27q44 29 71 97h161q-35 -344 -360 -344q-158 0 -255 91q-98 92 -111 253z" />
    <glyph glyph-name="dotaccentcmb" unicode="&#x307;" horiz-adv-x="0" 
d="M-604 1416q0 -95 -69 -164q-71 -68 -165 -68q-97 0 -166 69q-68 71 -68 166q0 97 68 165q71 68 165 68q99 0 167 -69q68 -68 68 -167z" />
    <glyph glyph-name="dieresiscmb" unicode="&#x308;" horiz-adv-x="0" 
d="M-631 1392q0 -66 -50 -116q-50 -48 -117 -48q-72 0 -121 49t-49 119q0 68 49 116q49 49 118 49q71 0 120 -49q50 -50 50 -120zM-187 1392q0 -67 -49 -116q-50 -48 -118 -48q-71 0 -120 49t-49 119q0 68 49 116q49 49 118 49q71 0 120 -49t49 -120z" />
    <glyph glyph-name="ringcmb" unicode="&#x30a;" horiz-adv-x="0" 
d="M-301 1431q0 -91 -66 -155q-64 -64 -156 -64q-90 0 -158 65q-65 65 -65 157t65 157q64 66 157 66t158 -66q65 -68 65 -160zM-431 1433q0 42 -27 69t-67 27q-20 0 -37 -7.5t-29.5 -20.5t-20 -30.5t-7.5 -36.5q0 -20 7.5 -37t20 -30t29.5 -20.5t37 -7.5q19 0 36.5 7.5
t30 20.5t20 30t7.5 36z" />
    <glyph glyph-name="hungarumlautcmb" unicode="&#x30b;" horiz-adv-x="0" 
d="M-879 1228l109 342h285l-187 -342h-207zM-493 1228l109 342h285l-187 -342h-207z" />
    <glyph glyph-name="caroncmb" unicode="&#x30c;" horiz-adv-x="0" 
d="M-930 1549h294l81 -156l91 156h239l-178 -321h-362z" />
    <glyph glyph-name="commaaccent" unicode="&#x326;" horiz-adv-x="0" 
d="M-88 -439l-196 -223h-135l126 257v59h-126v253h331v-346z" />
    <glyph glyph-name="cedillacmb" unicode="&#x327;" horiz-adv-x="0" 
d="M-297 -230l-263 -271l-152 110l227 284z" />
    <glyph glyph-name="ogonekcmb" unicode="&#x328;" horiz-adv-x="0" 
d="M-695 0h179q-100 -88 -100 -183q0 -104 118 -104q34 0 99 18l-23 -206q-59 -25 -127 -25q-132 0 -217 66q-84 66 -84 167q0 139 155 267z" />
    <glyph glyph-name="soliduslongoverlaycmb" unicode="&#x338;" horiz-adv-x="0" 
d="M-1142 -489l-217 123l1104 2062l218 -116z" />
    <glyph glyph-name="Deltagreek" unicode="&#x394;" horiz-adv-x="1534" 
d="M21 0l527 1544h431l533 -1544h-1491zM548 360h428l-209 748z" />
    <glyph glyph-name="Omegagreek" unicode="&#x3a9;" horiz-adv-x="1544" 
d="M64 0v352h279q-153 96 -219 213q-66 118 -66 295q0 307 205 515q206 209 509 209q304 0 509 -208t205 -518q0 -175 -66 -293q-66 -117 -218 -213h277v-352h-632v322q245 126 245 479q0 195 -89 320q-89 123 -231 123q-140 0 -230 -125t-90 -320q0 -351 246 -477v-322
h-634z" />
    <glyph glyph-name="pi" unicode="&#x3c0;" horiz-adv-x="1518" 
d="M216 0v806h-169v305h1423v-305h-168v-806h-388v806h-311v-806h-387z" />
    <glyph glyph-name="zerowidthjoiner" unicode="&#x200d;" horiz-adv-x="0" 
 />
    <glyph glyph-name="endash" unicode="&#x2013;" horiz-adv-x="1233" 
d="M1096 401h-960v309h960v-309z" />
    <glyph glyph-name="emdash" unicode="&#x2014;" horiz-adv-x="1506" 
d="M1506 401h-1506v309h1506v-309z" />
    <glyph glyph-name="quotesinglbase" unicode="&#x201a;" horiz-adv-x="753" 
d="M676 369l-270 -742h-329l189 742h410z" />
    <glyph glyph-name="quotedblleft" unicode="&#x201c;" horiz-adv-x="1317" 
d="M93 801l269 743h330l-190 -743h-409zM641 801l270 743h329l-189 -743h-410z" />
    <glyph glyph-name="quotedblright" unicode="&#x201d;" horiz-adv-x="1317" 
d="M1240 1544l-270 -743h-329l189 743h410zM692 1544l-270 -743h-329l189 743h410z" />
    <glyph glyph-name="quotedblbase" unicode="&#x201e;" horiz-adv-x="1301" 
d="M1224 369l-270 -742h-329l189 742h410zM676 369l-270 -742h-329l189 742h410z" />
    <glyph glyph-name="dagger" unicode="&#x2020;" horiz-adv-x="1235" 
d="M803 -482h-370v1469h-371v324h371v378h370v-378h371v-324h-371v-1469z" />
    <glyph glyph-name="daggerdbl" unicode="&#x2021;" horiz-adv-x="1235" 
d="M433 990h-371v318h371v381h370v-381h371v-318h-371v-462h371v-318h-371v-692h-370v692h-371v318h371v462z" />
    <glyph glyph-name="bullet" unicode="&#x2022;" horiz-adv-x="1544" 
d="M777 1111q129 0 221 -96q93 -95 93 -227q0 -136 -94 -230q-93 -94 -224 -94t-226 95q-93 94 -93 228q0 136 94 230t229 94z" />
    <glyph glyph-name="ellipsis" unicode="&#x2026;" horiz-adv-x="2317" 
d="M621 206q0 -94 -69 -161q-67 -67 -164 -67q-96 0 -167 68q-69 69 -69 167q0 96 68 164t164 68q99 0 168 -70q69 -69 69 -169zM1394 206q0 -94 -69 -161q-67 -67 -165 -67q-96 0 -167 68q-69 69 -69 167q0 96 68 164t164 68q99 0 168 -70q70 -69 70 -169zM2166 206
q0 -94 -69 -161q-67 -67 -165 -67q-96 0 -167 68q-69 69 -69 167q0 96 68 164t164 68q100 0 169 -70q69 -69 69 -169z" />
    <glyph glyph-name="perthousand" unicode="&#x2030;" horiz-adv-x="2338" 
d="M732 1192q0 -168 -91 -274t-236 -106q-157 0 -250 104q-93 103 -93 281q0 168 92 269q93 101 247 101q149 0 240 -103t91 -272zM461 1185q0 155 -63 155q-64 0 -64 -151t65 -151q62 0 62 147zM1535 357q0 -168 -91 -274q-92 -105 -236 -105q-157 0 -250 103t-93 281
q0 168 92 269q93 101 247 101q149 0 240 -103t91 -272zM1264 349q0 156 -63 156q-64 0 -64 -152q0 -151 65 -151q62 0 62 147zM330 -53l-161 115l1093 1545l166 -116zM2276 357q0 -168 -91 -274q-92 -105 -235 -105q-158 0 -251 103t-93 281q0 168 92 269q93 101 247 101
q149 0 240 -103t91 -272zM2005 349q0 156 -62 156q-65 0 -65 -152q0 -151 65 -151q62 0 62 147z" />
    <glyph glyph-name="guilsinglleft" unicode="&#x2039;" horiz-adv-x="654" 
d="M413 91l-351 465l351 465l180 -135l-263 -330l263 -330z" />
    <glyph glyph-name="guilsinglright" unicode="&#x203a;" horiz-adv-x="654" 
d="M242 91l-180 135l263 330l-263 330l180 135l351 -465z" />
    <glyph glyph-name="fraction" unicode="&#x2044;" horiz-adv-x="322" 
d="M-204 -102l-166 91l891 1658l171 -91z" />
    <glyph glyph-name="Euro" unicode="&#x20ac;" 
d="M1161 1186h-328q-115 0 -154 -16q-65 -23 -111 -93q-11 -16 -20 -34.5t-17 -38.5h520v-167h-979q16 316 184 515q105 125 241 174q117 46 321 46q18 0 60.5 -1.5t111.5 -3.5t111.5 -3t59.5 -1v-377zM1161 0q-69 -13 -164.5 -19.5t-227.5 -6.5q-181 0 -282 37
q-120 44 -219 152q-176 191 -196 521h979v-167h-506q4 -8 9 -17.5t12 -19.5q47 -72 110 -91q51 -14 149 -14h336v-375z" />
    <glyph glyph-name="trademark" unicode="&#x2122;" horiz-adv-x="1544" 
d="M383 664h-258v657h-132v223h529v-223h-139v-657zM1508 664h-269l-21 452l-89 -452h-210l-72 430l-25 -430h-276l106 880h315l66 -379l74 379h312z" />
    <glyph glyph-name="Omega" unicode="&#x2126;" horiz-adv-x="1544" 
d="M64 0v352h279q-153 96 -219 213q-66 118 -66 295q0 307 205 515q206 209 509 209q304 0 509 -208t205 -518q0 -175 -66 -293q-66 -117 -218 -213h277v-352h-632v322q245 126 245 479q0 195 -89 320q-89 123 -231 123q-140 0 -230 -125t-90 -320q0 -351 246 -477v-322
h-634z" />
    <glyph glyph-name="partialdiff" unicode="&#x2202;" horiz-adv-x="1158" 
d="M113 1213l47 319q239 -23 421 -92t305 -182.5t185.5 -270.5t62.5 -355q0 -306 -151 -478t-419 -172q-235 0 -386 151q-150 151 -150 389q0 203 133 339q134 137 332 137q158 0 249 -70q-42 74 -83 113q-20 20 -49 39t-67 38q-162 79 -430 95zM581 693q-78 0 -132 -56
t-54 -137q0 -79 53 -135q54 -56 129 -56q76 0 129 56t53 136q0 81 -52 136q-53 56 -126 56z" />
    <glyph glyph-name="Delta" unicode="&#x2206;" horiz-adv-x="1534" 
d="M21 0l527 1544h431l533 -1544h-1491zM548 360h428l-209 748z" />
    <glyph glyph-name="product" unicode="&#x220f;" horiz-adv-x="1544" 
d="M34 1737h1476v-331h-164v-1653h164v-331h-672v331h137v1653h-406v-1653h135v-331h-670v331h167v1653h-167v331z" />
    <glyph glyph-name="summation" unicode="&#x2211;" horiz-adv-x="1544" 
d="M1468 1737v-622h-373l-46 241h-505l552 -745l-548 -808h521l27 255h393v-636h-1411v438l527 750l-527 687v440h1390z" />
    <glyph glyph-name="minus" unicode="&#x2212;" horiz-adv-x="1235" 
d="M93 667v241h1050v-241h-1050z" />
    <glyph glyph-name="divisionslash" unicode="&#x2215;" horiz-adv-x="322" 
d="M-204 -102l-166 91l891 1658l171 -91z" />
    <glyph glyph-name="bulletoperator" unicode="&#x2219;" horiz-adv-x="616" 
d="M542 772q0 -94 -69 -161q-67 -67 -164 -67q-96 0 -167 68q-69 69 -69 167q0 96 68 164t164 68q99 0 168 -70q69 -69 69 -169z" />
    <glyph glyph-name="radical" unicode="&#x221a;" horiz-adv-x="1544" 
d="M1544 1915v-343h-361l-368 -1572h-489l-111 548h-215v342h449l48 -208q13 -57 21.5 -139t13.5 -197h24q13 166 40 334.5t72 353.5l211 881h665z" />
    <glyph glyph-name="infinity" unicode="&#x221e;" horiz-adv-x="1544" 
d="M779 602q-166 -190 -365 -190q-165 0 -270 105t-105 269t105 269q106 106 269 106q189 0 353 -189q155 188 363 188q164 0 271 -104q105 -104 105 -269q0 -164 -105 -270t-267 -106q-199 0 -354 191zM912 786q85 -120 175 -120q51 0 89 35q37 34 37 86q0 50 -37 84
q-38 35 -90 35q-89 0 -174 -120zM632 786q-86 119 -175 119q-52 0 -90 -35q-36 -35 -36 -85q0 -51 37 -85t90 -34q88 0 174 120z" />
    <glyph glyph-name="integral" unicode="&#x222b;" horiz-adv-x="1158" 
d="M46 -555l66 393q69 -23 104 -23q63 0 102 40q38 38 38 160v150v751v134v73q0 258 65 374q133 241 467 241q89 0 224 -24l-66 -393q-67 23 -105 23q-79 0 -109 -45q-29 -47 -29 -166v-879q0 -177 -3 -282.5t-8 -150.5t-21.5 -88.5t-42.5 -86.5q-139 -223 -462 -223
q-109 0 -201 19z" />
    <glyph glyph-name="approxequal" unicode="&#x2248;" horiz-adv-x="1158" 
d="M225 806l-209 148q35 90 73.5 155.5t82.5 108t95 62.5t111 20q62 0 257 -71l82 -32q36 -16 76 -16q71 0 140 97l208 -147q-73 -186 -159 -266q-82 -79 -205 -79q-85 0 -259 73q-113 45 -159 45q-66 0 -134 -98zM225 247l-209 148q35 90 73.5 155.5t82.5 107.5t95 62.5
t111 20.5q68 0 257 -72l82 -31q51 -17 75 -17q72 0 141 98l208 -147q-75 -187 -158 -267q-83 -78 -206 -78q-78 0 -259 72q-105 46 -159 46q-66 0 -134 -98z" />
    <glyph glyph-name="notequal" unicode="&#x2260;" horiz-adv-x="1158" 
d="M582 1154l167 309l268 -151l-92 -158h156v-365h-303l-87 -152h388v-365h-521l-139 -250l-268 151l63 99h-137v365h270l87 152h-356l1 365h503z" />
    <glyph glyph-name="lessequal" unicode="&#x2264;" horiz-adv-x="1158" 
d="M1081 1556v-409l-526 -139l523 -138l3 -409l-1004 366v364zM1081 402v-384h-1004v384h1004z" />
    <glyph glyph-name="greaterequal" unicode="&#x2265;" horiz-adv-x="1158" 
d="M77 461l2 409l524 138l-526 139v409l1004 -365v-365zM77 18v384h1004v-384h-1004z" />
    <glyph glyph-name="lozenge" unicode="&#x25ca;" horiz-adv-x="1544" 
d="M772 1605l602 -832l-602 -832l-601 832zM772 1400l-456 -627l456 -628l457 628z" />
    <glyph glyph-name="apple" unicode="&#xf8ff;" horiz-adv-x="1618" 
d="M836 1204q41 0 145 35t178 35q123 0 219 -66q27 -20 53.5 -44.5t53.5 -57.5q-80 -70 -117 -123q-68 -94 -68 -211q0 -127 72 -229q70 -101 162 -129q-21 -62 -51.5 -126.5t-73.5 -129.5q-131 -193 -264 -193q-55 0 -146 33q-88 25 -153 25q-68 0 -148 -27
q-86 -35 -135 -35q-155 0 -307 258q-152 262 -152 516q0 234 115 383q117 148 293 148q76 0 182 -31q109 -31 142 -31zM1149 1618q0 -66 -31 -141.5t-94 -141.5q-59 -55 -113 -73q-39 -11 -104 -17q2 152 79 263.5t257 152.5q4 -14 5 -24.5t1 -18.5z" />
    <glyph glyph-name="NULL" horiz-adv-x="0" 
 />
    <glyph glyph-name="fee" horiz-adv-x="1233" 
d="M833 1852q0 -82 -59 -141t-140 -59q-84 0 -143 59q-59 62 -59 144q0 83 58 141q59 59 142 59t142 -59t59 -144zM719 1852q0 37 -25 62t-61 25q-35 0 -60 -24.5t-25 -60.5q0 -18 7 -33.5t18.5 -27t27 -18.5t33.5 -7q36 0 60.5 25.5t24.5 58.5z" />
    <glyph glyph-name="judge" horiz-adv-x="1031" 
d="M847 -245l-325 -308l-168 106l279 340z" />
    <glyph glyph-name="Acute" horiz-adv-x="953" 
d="M793 2017l-195 -349h-233l101 349h327z" />
    <glyph glyph-name="Grave" horiz-adv-x="953" 
d="M226 2017h326l101 -349h-232z" />
    <glyph glyph-name="sure" horiz-adv-x="953" 
d="M869 1668h-314l-80 139l-87 -139h-265l203 319h353z" />
    <glyph glyph-name="eat" horiz-adv-x="633" 
d="M660 1813q0 -59 -44 -103q-44 -42 -102 -42q-63 0 -106 43t-43 104t43 103q43 43 104 43q62 0 105 -43t43 -105zM269 1815q0 -61 -43 -104t-103 -43q-61 0 -104 43q-42 43 -42 104t42 105q43 43 104 43t103 -43q43 -43 43 -105z" />
    <glyph glyph-name="up" horiz-adv-x="633" 
d="M616 2017l-195 -349h-232l101 349h326z" />
    <glyph glyph-name="oak" horiz-adv-x="633" 
d="M27 2017h327l100 -349h-232z" />
    <glyph glyph-name="ice" horiz-adv-x="633" 
d="M674 1668h-314l-64 139l-72 -139h-264l186 319h353z" />
    <glyph glyph-name="Caron" horiz-adv-x="1192" 
d="M279 1964h322l68 -110l76 110h265l-214 -296h-326z" />
    <glyph glyph-name="Dieresis" horiz-adv-x="1159" 
d="M977 1833q0 -67 -49 -116t-118 -49q-71 0 -120 49t-49 119q0 69 49 118t119 49q69 0 119 -50q49 -49 49 -120zM516 1835q0 -68 -50 -118q-49 -49 -117 -49q-69 0 -118 49t-49 118q0 70 49 119t118 49q70 0 118 -49q49 -49 49 -119z" />
    <glyph glyph-name="uniE770" horiz-adv-x="587" 
d="M628 1373q0 -59 -44 -103q-44 -42 -103 -42q-62 0 -105 43t-43 104t43 103q43 43 104 43q62 0 105 -43t43 -105zM252 1375q0 -61 -43 -104t-103 -43q-61 0 -104 43q-42 43 -42 104t42 105q43 43 104 43t103 -43q43 -43 43 -105z" />
    <glyph glyph-name="uniE772" horiz-adv-x="586" 
d="M630 1228h-294l-66 156l-75 -156h-238l161 321h362z" />
    <glyph glyph-name="ash" horiz-adv-x="587" 
d="M482 1191l-196 -223h-135l126 257v59h-126v253h331v-346z" />
    <glyph glyph-name="uniF6C3" horiz-adv-x="528" 
d="M439 -439l-196 -223h-135l126 257v59h-126v253h331v-346z" />
    <glyph glyph-name="uniE784" horiz-adv-x="587" 
d="M133 1576l196 223h135l-126 -257v-59h126v-253h-331v346z" />
    <glyph glyph-name="kick" horiz-adv-x="633" 
d="M553 1877q0 -95 -69 -164q-71 -68 -165 -68q-97 0 -166 69q-68 71 -68 166q0 97 68 165q71 68 165 68q99 0 167 -69q68 -68 68 -167z" />
    <glyph glyph-name="yea" horiz-adv-x="1297" 
d="M285 2006h161q29 -68 73 -96q46 -27 137 -27t136 27q45 25 74 96h161q-13 -161 -112 -254q-98 -90 -261 -90q-160 0 -257 91q-98 92 -112 253z" />
    <glyph glyph-name="Hungarumlaut" horiz-adv-x="1313" 
d="M358 1667l109 342h285l-187 -342h-207zM744 1667l109 342h285l-187 -342h-207z" />
    <glyph glyph-name="Macron" horiz-adv-x="1233" 
d="M270 1678v224h726v-224h-726z" />
    <glyph glyph-name="ooze" horiz-adv-x="633" 
d="M0 1678v224h633v-224h-633z" />
    <glyph glyph-name="uniE775" horiz-adv-x="587" 
d="M0 1266v224h587v-224h-587z" />
    <glyph glyph-name="dotlessj" horiz-adv-x="587" 
d="M494 -473h-399v1554h399v-1554z" />
    </font>
</defs>
</svg>
